<mxfile host="app.diagrams.net" modified="2022-09-15T06:55:06.476Z" agent="5.0 (Windows NT 10.0; Win64; x64) AppleWebKit/537.36 (KHTML, like Gecko) Chrome/105.0.5195.102 Safari/537.36" etag="JzsxGLWjAW3N2ObV9Ogm" version="20.2.3" type="github">
  <diagram id="6w9Y84feZphGdz3I18f9" name="Page-1">
    <mxGraphModel dx="3250" dy="4136" grid="1" gridSize="10" guides="1" tooltips="1" connect="1" arrows="1" fold="1" page="1" pageScale="1" pageWidth="850" pageHeight="1100" math="0" shadow="0">
      <root>
        <mxCell id="0" />
        <mxCell id="1" parent="0" />
        <mxCell id="DAs-1uU9wL7oWLrZRLtQ-103" style="edgeStyle=none;rounded=0;orthogonalLoop=1;jettySize=auto;html=1;exitX=1;exitY=0.3333333333333333;exitDx=0;exitDy=0;exitPerimeter=0;entryX=0;entryY=0.5;entryDx=0;entryDy=0;endArrow=none;endFill=0;" parent="1" source="DAs-1uU9wL7oWLrZRLtQ-27" target="DAs-1uU9wL7oWLrZRLtQ-104" edge="1">
          <mxGeometry relative="1" as="geometry">
            <mxPoint x="-250" y="-1205" as="targetPoint" />
          </mxGeometry>
        </mxCell>
        <mxCell id="DAs-1uU9wL7oWLrZRLtQ-110" style="edgeStyle=none;rounded=0;orthogonalLoop=1;jettySize=auto;html=1;exitX=1;exitY=0.3333333333333333;exitDx=0;exitDy=0;exitPerimeter=0;entryX=0;entryY=0.5;entryDx=0;entryDy=0;endArrow=none;endFill=0;" parent="1" source="DAs-1uU9wL7oWLrZRLtQ-27" target="DAs-1uU9wL7oWLrZRLtQ-109" edge="1">
          <mxGeometry relative="1" as="geometry" />
        </mxCell>
        <mxCell id="DAs-1uU9wL7oWLrZRLtQ-114" style="edgeStyle=none;rounded=0;orthogonalLoop=1;jettySize=auto;html=1;exitX=1;exitY=0.3333333333333333;exitDx=0;exitDy=0;exitPerimeter=0;entryX=0;entryY=0.5;entryDx=0;entryDy=0;endArrow=none;endFill=0;" parent="1" source="DAs-1uU9wL7oWLrZRLtQ-27" target="DAs-1uU9wL7oWLrZRLtQ-113" edge="1">
          <mxGeometry relative="1" as="geometry" />
        </mxCell>
        <mxCell id="DAs-1uU9wL7oWLrZRLtQ-27" value="User" style="shape=umlActor;verticalLabelPosition=bottom;verticalAlign=top;html=1;" parent="1" vertex="1">
          <mxGeometry x="-715" y="-1480" width="40" height="70" as="geometry" />
        </mxCell>
        <mxCell id="DAs-1uU9wL7oWLrZRLtQ-61" style="edgeStyle=none;rounded=0;orthogonalLoop=1;jettySize=auto;html=1;exitX=0;exitY=0.5;exitDx=0;exitDy=0;entryX=0.999;entryY=0.33;entryDx=0;entryDy=0;entryPerimeter=0;endArrow=classic;endFill=1;dashed=1;" parent="1" source="DAs-1uU9wL7oWLrZRLtQ-60" target="DAs-1uU9wL7oWLrZRLtQ-73" edge="1">
          <mxGeometry relative="1" as="geometry">
            <mxPoint x="-87.15000000000009" y="-1528.6" as="targetPoint" />
          </mxGeometry>
        </mxCell>
        <mxCell id="DAs-1uU9wL7oWLrZRLtQ-60" value="Sign Up" style="ellipse;whiteSpace=wrap;html=1;" parent="1" vertex="1">
          <mxGeometry x="384.25" y="-1640" width="140" height="70" as="geometry" />
        </mxCell>
        <mxCell id="DAs-1uU9wL7oWLrZRLtQ-71" value="" style="shape=ellipse;container=1;horizontal=1;horizontalStack=0;resizeParent=1;resizeParentMax=0;resizeLast=0;html=1;dashed=0;collapsible=0;" parent="1" vertex="1">
          <mxGeometry x="-80" y="-1700" width="200" height="130" as="geometry" />
        </mxCell>
        <mxCell id="DAs-1uU9wL7oWLrZRLtQ-72" value="Login" style="html=1;strokeColor=none;fillColor=none;align=center;verticalAlign=middle;rotatable=0;" parent="DAs-1uU9wL7oWLrZRLtQ-71" vertex="1">
          <mxGeometry width="200" height="32.5" as="geometry" />
        </mxCell>
        <mxCell id="DAs-1uU9wL7oWLrZRLtQ-73" value="" style="line;strokeWidth=1;fillColor=none;rotatable=0;labelPosition=right;points=[];portConstraint=eastwest;dashed=0;resizeWidth=1;" parent="DAs-1uU9wL7oWLrZRLtQ-71" vertex="1">
          <mxGeometry x="10" y="32.5" width="180" height="10.83333333333333" as="geometry" />
        </mxCell>
        <mxCell id="DAs-1uU9wL7oWLrZRLtQ-74" value="&lt;b&gt;extension points&lt;/b&gt;" style="text;html=1;align=center;verticalAlign=middle;rotatable=0;" parent="DAs-1uU9wL7oWLrZRLtQ-71" vertex="1">
          <mxGeometry y="43.33333333333332" width="200" height="32.5" as="geometry" />
        </mxCell>
        <mxCell id="DAs-1uU9wL7oWLrZRLtQ-75" value="Button: Sign up&lt;br&gt;Check box: Keep sign in" style="text;html=1;align=left;verticalAlign=middle;rotatable=0;spacingLeft=25;" parent="DAs-1uU9wL7oWLrZRLtQ-71" vertex="1">
          <mxGeometry x="-0.004040404040405787" y="70" width="200" height="32.5" as="geometry" />
        </mxCell>
        <mxCell id="DAs-1uU9wL7oWLrZRLtQ-76" style="edgeStyle=none;rounded=0;orthogonalLoop=1;jettySize=auto;html=1;exitX=0.19;exitY=0.903;exitDx=0;exitDy=0;entryX=1;entryY=0.3333333333333333;entryDx=0;entryDy=0;entryPerimeter=0;endArrow=none;endFill=0;exitPerimeter=0;" parent="1" source="DAs-1uU9wL7oWLrZRLtQ-71" target="DAs-1uU9wL7oWLrZRLtQ-27" edge="1">
          <mxGeometry relative="1" as="geometry" />
        </mxCell>
        <mxCell id="DAs-1uU9wL7oWLrZRLtQ-77" value="&amp;lt;&amp;lt;extends&amp;gt;&amp;gt;" style="text;html=1;strokeColor=none;fillColor=none;align=center;verticalAlign=middle;whiteSpace=wrap;rounded=0;" parent="1" vertex="1">
          <mxGeometry x="223" y="-1665" width="60" height="30" as="geometry" />
        </mxCell>
        <mxCell id="DAs-1uU9wL7oWLrZRLtQ-78" value="Authenticate the user" style="ellipse;whiteSpace=wrap;html=1;" parent="1" vertex="1">
          <mxGeometry x="430" y="-1930" width="140" height="70" as="geometry" />
        </mxCell>
        <mxCell id="DAs-1uU9wL7oWLrZRLtQ-79" style="edgeStyle=none;rounded=0;orthogonalLoop=1;jettySize=auto;html=1;exitX=0.969;exitY=0.277;exitDx=0;exitDy=0;entryX=0;entryY=0.5;entryDx=0;entryDy=0;endArrow=classic;endFill=1;dashed=1;exitPerimeter=0;" parent="1" source="DAs-1uU9wL7oWLrZRLtQ-71" target="DAs-1uU9wL7oWLrZRLtQ-78" edge="1">
          <mxGeometry relative="1" as="geometry" />
        </mxCell>
        <mxCell id="DAs-1uU9wL7oWLrZRLtQ-80" value="&amp;lt;&amp;lt;include&amp;gt;&amp;gt;" style="text;html=1;strokeColor=none;fillColor=none;align=center;verticalAlign=middle;whiteSpace=wrap;rounded=0;" parent="1" vertex="1">
          <mxGeometry x="290.5" y="-1800" width="60" height="30" as="geometry" />
        </mxCell>
        <mxCell id="DAs-1uU9wL7oWLrZRLtQ-81" value="" style="shape=ellipse;container=1;horizontal=1;horizontalStack=0;resizeParent=1;resizeParentMax=0;resizeLast=0;html=1;dashed=0;collapsible=0;" parent="1" vertex="1">
          <mxGeometry x="-67.75" y="-1820" width="175.75" height="90" as="geometry" />
        </mxCell>
        <mxCell id="DAs-1uU9wL7oWLrZRLtQ-82" value="View account/profile" style="html=1;strokeColor=none;fillColor=none;align=center;verticalAlign=middle;rotatable=0;" parent="DAs-1uU9wL7oWLrZRLtQ-81" vertex="1">
          <mxGeometry x="0.8761309523809523" y="35" width="175.75" height="14.999999999999998" as="geometry" />
        </mxCell>
        <mxCell id="DAs-1uU9wL7oWLrZRLtQ-86" style="edgeStyle=none;rounded=0;orthogonalLoop=1;jettySize=auto;html=1;exitX=0.043;exitY=0.691;exitDx=0;exitDy=0;entryX=1;entryY=0.3333333333333333;entryDx=0;entryDy=0;entryPerimeter=0;endArrow=none;endFill=0;exitPerimeter=0;" parent="1" source="DAs-1uU9wL7oWLrZRLtQ-81" target="DAs-1uU9wL7oWLrZRLtQ-27" edge="1">
          <mxGeometry relative="1" as="geometry">
            <mxPoint x="-185.75" y="-1768.75" as="sourcePoint" />
            <mxPoint x="-679.6" y="-1517.9166666666667" as="targetPoint" />
          </mxGeometry>
        </mxCell>
        <mxCell id="DAs-1uU9wL7oWLrZRLtQ-95" style="edgeStyle=none;rounded=0;orthogonalLoop=1;jettySize=auto;html=1;exitX=0;exitY=0;exitDx=0;exitDy=0;exitPerimeter=0;dashed=1;endArrow=classic;endFill=1;" parent="1" source="DAs-1uU9wL7oWLrZRLtQ-94" target="DAs-1uU9wL7oWLrZRLtQ-77" edge="1">
          <mxGeometry relative="1" as="geometry" />
        </mxCell>
        <mxCell id="DAs-1uU9wL7oWLrZRLtQ-94" value="Condition: User clicks the sign up button" style="shape=note2;boundedLbl=1;whiteSpace=wrap;html=1;size=11;verticalAlign=top;align=center;" parent="1" vertex="1">
          <mxGeometry x="365.5" y="-1750" width="100" height="62" as="geometry" />
        </mxCell>
        <mxCell id="DAs-1uU9wL7oWLrZRLtQ-107" style="edgeStyle=none;rounded=0;orthogonalLoop=1;jettySize=auto;html=1;exitX=1;exitY=0.5;exitDx=0;exitDy=0;endArrow=classic;endFill=1;dashed=1;" parent="1" source="DAs-1uU9wL7oWLrZRLtQ-104" target="DAs-1uU9wL7oWLrZRLtQ-105" edge="1">
          <mxGeometry relative="1" as="geometry" />
        </mxCell>
        <mxCell id="DAs-1uU9wL7oWLrZRLtQ-104" value="Log out" style="ellipse;whiteSpace=wrap;html=1;" parent="1" vertex="1">
          <mxGeometry x="-37" y="-1340" width="140" height="70" as="geometry" />
        </mxCell>
        <mxCell id="DAs-1uU9wL7oWLrZRLtQ-105" value="Verify user action" style="ellipse;whiteSpace=wrap;html=1;" parent="1" vertex="1">
          <mxGeometry x="350.5" y="-1340" width="140" height="70" as="geometry" />
        </mxCell>
        <mxCell id="DAs-1uU9wL7oWLrZRLtQ-108" value="&amp;lt;&amp;lt;include&amp;gt;&amp;gt;" style="text;html=1;strokeColor=none;fillColor=none;align=center;verticalAlign=middle;whiteSpace=wrap;rounded=0;" parent="1" vertex="1">
          <mxGeometry x="183" y="-1340" width="60" height="30" as="geometry" />
        </mxCell>
        <mxCell id="DAs-1uU9wL7oWLrZRLtQ-109" value="Create new project" style="ellipse;whiteSpace=wrap;html=1;" parent="1" vertex="1">
          <mxGeometry x="-47" y="-1540" width="140" height="70" as="geometry" />
        </mxCell>
        <mxCell id="DAs-1uU9wL7oWLrZRLtQ-113" value="Set the Status of the User" style="ellipse;whiteSpace=wrap;html=1;" parent="1" vertex="1">
          <mxGeometry x="-44.5" y="-1250" width="140" height="70" as="geometry" />
        </mxCell>
        <mxCell id="DAs-1uU9wL7oWLrZRLtQ-118" style="edgeStyle=none;rounded=0;orthogonalLoop=1;jettySize=auto;html=1;exitX=0.5;exitY=0;exitDx=0;exitDy=0;exitPerimeter=0;endArrow=classic;endFill=1;startArrow=none;startFill=0;" parent="1" source="DAs-1uU9wL7oWLrZRLtQ-115" edge="1">
          <mxGeometry relative="1" as="geometry">
            <mxPoint x="-702" y="3560" as="targetPoint" />
          </mxGeometry>
        </mxCell>
        <mxCell id="DAs-1uU9wL7oWLrZRLtQ-123" style="edgeStyle=none;rounded=0;orthogonalLoop=1;jettySize=auto;html=1;exitX=1;exitY=0.3333333333333333;exitDx=0;exitDy=0;exitPerimeter=0;entryX=0;entryY=0.5;entryDx=0;entryDy=0;startArrow=none;startFill=0;endArrow=none;endFill=0;" parent="1" source="DAs-1uU9wL7oWLrZRLtQ-115" target="DAs-1uU9wL7oWLrZRLtQ-119" edge="1">
          <mxGeometry relative="1" as="geometry" />
        </mxCell>
        <mxCell id="DAs-1uU9wL7oWLrZRLtQ-125" style="edgeStyle=none;rounded=0;orthogonalLoop=1;jettySize=auto;html=1;exitX=1;exitY=0.3333333333333333;exitDx=0;exitDy=0;exitPerimeter=0;entryX=0.008;entryY=0.621;entryDx=0;entryDy=0;startArrow=none;startFill=0;endArrow=none;endFill=0;entryPerimeter=0;" parent="1" source="DAs-1uU9wL7oWLrZRLtQ-115" target="DAs-1uU9wL7oWLrZRLtQ-128" edge="1">
          <mxGeometry relative="1" as="geometry">
            <mxPoint x="-202" y="3715" as="targetPoint" />
          </mxGeometry>
        </mxCell>
        <mxCell id="DAs-1uU9wL7oWLrZRLtQ-115" value="Client" style="shape=umlActor;verticalLabelPosition=bottom;verticalAlign=top;html=1;" parent="1" vertex="1">
          <mxGeometry x="-722" y="3730" width="40" height="70" as="geometry" />
        </mxCell>
        <mxCell id="DAs-1uU9wL7oWLrZRLtQ-122" style="edgeStyle=none;rounded=0;orthogonalLoop=1;jettySize=auto;html=1;exitX=1;exitY=0;exitDx=0;exitDy=0;startArrow=none;startFill=0;endArrow=classic;endFill=1;dashed=1;entryX=0;entryY=0.5;entryDx=0;entryDy=0;" parent="1" source="DAs-1uU9wL7oWLrZRLtQ-119" target="DAs-1uU9wL7oWLrZRLtQ-121" edge="1">
          <mxGeometry relative="1" as="geometry">
            <mxPoint x="-19.5" y="3460" as="targetPoint" />
          </mxGeometry>
        </mxCell>
        <mxCell id="DAs-1uU9wL7oWLrZRLtQ-119" value="View a projects progress" style="ellipse;whiteSpace=wrap;html=1;" parent="1" vertex="1">
          <mxGeometry x="-256.5" y="3390" width="140" height="70" as="geometry" />
        </mxCell>
        <mxCell id="DAs-1uU9wL7oWLrZRLtQ-121" value="Select&amp;nbsp; a project from the clients list of projects" style="ellipse;whiteSpace=wrap;html=1;" parent="1" vertex="1">
          <mxGeometry x="-9" y="3420" width="140" height="70" as="geometry" />
        </mxCell>
        <mxCell id="DAs-1uU9wL7oWLrZRLtQ-126" style="edgeStyle=none;rounded=0;orthogonalLoop=1;jettySize=auto;html=1;exitX=0.5;exitY=0;exitDx=0;exitDy=0;entryX=0;entryY=1;entryDx=0;entryDy=0;startArrow=none;startFill=0;endArrow=classic;endFill=1;dashed=1;" parent="1" source="DAs-1uU9wL7oWLrZRLtQ-128" target="DAs-1uU9wL7oWLrZRLtQ-121" edge="1">
          <mxGeometry relative="1" as="geometry">
            <mxPoint x="-62" y="3715" as="sourcePoint" />
          </mxGeometry>
        </mxCell>
        <mxCell id="DAs-1uU9wL7oWLrZRLtQ-127" value="&amp;lt;&amp;lt;include&amp;gt;&amp;gt;" style="text;html=1;strokeColor=none;fillColor=none;align=center;verticalAlign=middle;whiteSpace=wrap;rounded=0;" parent="1" vertex="1">
          <mxGeometry x="-79" y="3490" width="60" height="30" as="geometry" />
        </mxCell>
        <mxCell id="DAs-1uU9wL7oWLrZRLtQ-135" style="edgeStyle=none;rounded=0;orthogonalLoop=1;jettySize=auto;html=1;exitX=1;exitY=0.5;exitDx=0;exitDy=0;entryX=0;entryY=1;entryDx=0;entryDy=0;startArrow=classic;startFill=1;endArrow=none;endFill=0;dashed=1;" parent="1" source="DAs-1uU9wL7oWLrZRLtQ-131" target="DAs-1uU9wL7oWLrZRLtQ-134" edge="1">
          <mxGeometry relative="1" as="geometry" />
        </mxCell>
        <mxCell id="DAs-1uU9wL7oWLrZRLtQ-128" value="" style="shape=ellipse;container=1;horizontal=1;horizontalStack=0;resizeParent=1;resizeParentMax=0;resizeLast=0;html=1;dashed=0;collapsible=0;" parent="1" vertex="1">
          <mxGeometry x="-310.25" y="3510" width="230" height="90" as="geometry" />
        </mxCell>
        <mxCell id="DAs-1uU9wL7oWLrZRLtQ-129" value="Message project leader" style="html=1;strokeColor=none;fillColor=none;align=center;verticalAlign=middle;rotatable=0;" parent="DAs-1uU9wL7oWLrZRLtQ-128" vertex="1">
          <mxGeometry y="7.499999999999999" width="230" height="14.999999999999998" as="geometry" />
        </mxCell>
        <mxCell id="DAs-1uU9wL7oWLrZRLtQ-130" value="" style="line;strokeWidth=1;fillColor=none;rotatable=0;labelPosition=right;points=[];portConstraint=eastwest;dashed=0;resizeWidth=1;" parent="DAs-1uU9wL7oWLrZRLtQ-128" vertex="1">
          <mxGeometry x="11.5" y="22.5" width="207" height="7.499999999999999" as="geometry" />
        </mxCell>
        <mxCell id="DAs-1uU9wL7oWLrZRLtQ-131" value="extension points" style="text;html=1;align=center;verticalAlign=middle;rotatable=0;" parent="DAs-1uU9wL7oWLrZRLtQ-128" vertex="1">
          <mxGeometry y="29.999999999999996" width="230" height="22.5" as="geometry" />
        </mxCell>
        <mxCell id="DAs-1uU9wL7oWLrZRLtQ-132" value="Drop down menu: Select leader" style="text;html=1;align=left;verticalAlign=middle;rotatable=0;spacingLeft=25;" parent="DAs-1uU9wL7oWLrZRLtQ-128" vertex="1">
          <mxGeometry x="0.0023076923076956746" y="52.50176470588235" width="194.61538461538464" height="16.32176470588235" as="geometry" />
        </mxCell>
        <mxCell id="DAs-1uU9wL7oWLrZRLtQ-136" style="edgeStyle=none;rounded=0;orthogonalLoop=1;jettySize=auto;html=1;exitX=0;exitY=0;exitDx=0;exitDy=0;exitPerimeter=0;startArrow=none;startFill=0;endArrow=classic;endFill=1;dashed=1;entryX=0;entryY=1;entryDx=0;entryDy=0;" parent="1" source="DAs-1uU9wL7oWLrZRLtQ-133" target="DAs-1uU9wL7oWLrZRLtQ-137" edge="1">
          <mxGeometry relative="1" as="geometry">
            <mxPoint x="38" y="3670" as="targetPoint" />
          </mxGeometry>
        </mxCell>
        <mxCell id="DAs-1uU9wL7oWLrZRLtQ-133" value="Condition: If the user specify a leader only message the relevant person else message all the leaders in the group" style="shape=note2;boundedLbl=1;whiteSpace=wrap;html=1;size=11;verticalAlign=top;align=center;" parent="1" vertex="1">
          <mxGeometry x="-62" y="3640" width="290" height="62" as="geometry" />
        </mxCell>
        <mxCell id="DAs-1uU9wL7oWLrZRLtQ-134" value="Select project leader" style="ellipse;whiteSpace=wrap;html=1;" parent="1" vertex="1">
          <mxGeometry x="78" y="3550" width="140" height="70" as="geometry" />
        </mxCell>
        <mxCell id="DAs-1uU9wL7oWLrZRLtQ-137" value="&amp;lt;&amp;lt;extends&amp;gt;&amp;gt;" style="text;html=1;strokeColor=none;fillColor=none;align=center;verticalAlign=middle;whiteSpace=wrap;rounded=0;" parent="1" vertex="1">
          <mxGeometry x="-6.5" y="3550" width="60" height="30" as="geometry" />
        </mxCell>
        <mxCell id="DAs-1uU9wL7oWLrZRLtQ-143" value="&amp;lt;&amp;lt;include&amp;gt;&amp;gt;" style="text;html=1;strokeColor=none;fillColor=none;align=center;verticalAlign=middle;whiteSpace=wrap;rounded=0;" parent="1" vertex="1">
          <mxGeometry x="-70.25" y="3410" width="60" height="30" as="geometry" />
        </mxCell>
        <mxCell id="DAs-1uU9wL7oWLrZRLtQ-157" style="rounded=0;orthogonalLoop=1;jettySize=auto;html=1;exitX=1;exitY=0.3333333333333333;exitDx=0;exitDy=0;exitPerimeter=0;entryX=0;entryY=0.5;entryDx=0;entryDy=0;startArrow=none;startFill=0;endArrow=none;endFill=0;" parent="1" source="DAs-1uU9wL7oWLrZRLtQ-151" target="DAs-1uU9wL7oWLrZRLtQ-156" edge="1">
          <mxGeometry relative="1" as="geometry" />
        </mxCell>
        <mxCell id="DAs-1uU9wL7oWLrZRLtQ-161" style="edgeStyle=none;rounded=0;orthogonalLoop=1;jettySize=auto;html=1;exitX=1;exitY=0.3333333333333333;exitDx=0;exitDy=0;exitPerimeter=0;entryX=0;entryY=0.5;entryDx=0;entryDy=0;startArrow=none;startFill=0;endArrow=none;endFill=0;" parent="1" source="DAs-1uU9wL7oWLrZRLtQ-151" target="DAs-1uU9wL7oWLrZRLtQ-158" edge="1">
          <mxGeometry relative="1" as="geometry" />
        </mxCell>
        <mxCell id="DAs-1uU9wL7oWLrZRLtQ-162" style="edgeStyle=none;rounded=0;orthogonalLoop=1;jettySize=auto;html=1;exitX=1;exitY=0.3333333333333333;exitDx=0;exitDy=0;exitPerimeter=0;entryX=0;entryY=0.5;entryDx=0;entryDy=0;startArrow=none;startFill=0;endArrow=none;endFill=0;" parent="1" source="DAs-1uU9wL7oWLrZRLtQ-151" target="DAs-1uU9wL7oWLrZRLtQ-159" edge="1">
          <mxGeometry relative="1" as="geometry" />
        </mxCell>
        <mxCell id="DAs-1uU9wL7oWLrZRLtQ-163" style="edgeStyle=none;rounded=0;orthogonalLoop=1;jettySize=auto;html=1;exitX=1;exitY=0.3333333333333333;exitDx=0;exitDy=0;exitPerimeter=0;entryX=0;entryY=0.5;entryDx=0;entryDy=0;startArrow=none;startFill=0;endArrow=none;endFill=0;" parent="1" source="DAs-1uU9wL7oWLrZRLtQ-151" target="DAs-1uU9wL7oWLrZRLtQ-160" edge="1">
          <mxGeometry relative="1" as="geometry" />
        </mxCell>
        <mxCell id="DAs-1uU9wL7oWLrZRLtQ-151" value="Admin" style="shape=umlActor;verticalLabelPosition=bottom;verticalAlign=top;html=1;" parent="1" vertex="1">
          <mxGeometry x="-715" y="-2510" width="40" height="70" as="geometry" />
        </mxCell>
        <mxCell id="DAs-1uU9wL7oWLrZRLtQ-156" value="Maintenance of the system" style="ellipse;whiteSpace=wrap;html=1;" parent="1" vertex="1">
          <mxGeometry x="-102.5" y="-2620" width="140" height="70" as="geometry" />
        </mxCell>
        <mxCell id="DAs-1uU9wL7oWLrZRLtQ-158" value="Add new accounts" style="ellipse;whiteSpace=wrap;html=1;" parent="1" vertex="1">
          <mxGeometry x="-107.5" y="-2510" width="140" height="70" as="geometry" />
        </mxCell>
        <mxCell id="DAs-1uU9wL7oWLrZRLtQ-165" style="edgeStyle=none;rounded=0;orthogonalLoop=1;jettySize=auto;html=1;exitX=1;exitY=0.5;exitDx=0;exitDy=0;entryX=0;entryY=0.5;entryDx=0;entryDy=0;startArrow=none;startFill=0;endArrow=classic;endFill=1;dashed=1;" parent="1" source="DAs-1uU9wL7oWLrZRLtQ-159" target="DAs-1uU9wL7oWLrZRLtQ-164" edge="1">
          <mxGeometry relative="1" as="geometry" />
        </mxCell>
        <mxCell id="DAs-1uU9wL7oWLrZRLtQ-169" style="edgeStyle=none;rounded=0;orthogonalLoop=1;jettySize=auto;html=1;exitX=1;exitY=0.5;exitDx=0;exitDy=0;entryX=0;entryY=0.5;entryDx=0;entryDy=0;dashed=1;startArrow=none;startFill=0;endArrow=classic;endFill=1;" parent="1" source="DAs-1uU9wL7oWLrZRLtQ-159" target="DAs-1uU9wL7oWLrZRLtQ-168" edge="1">
          <mxGeometry relative="1" as="geometry" />
        </mxCell>
        <mxCell id="DAs-1uU9wL7oWLrZRLtQ-159" value="Remove accounts" style="ellipse;whiteSpace=wrap;html=1;" parent="1" vertex="1">
          <mxGeometry x="-107.5" y="-2420" width="140" height="70" as="geometry" />
        </mxCell>
        <mxCell id="DAs-1uU9wL7oWLrZRLtQ-160" value="Send notifications to all the users" style="ellipse;whiteSpace=wrap;html=1;" parent="1" vertex="1">
          <mxGeometry x="-95" y="-2330" width="140" height="70" as="geometry" />
        </mxCell>
        <mxCell id="DAs-1uU9wL7oWLrZRLtQ-164" value="Get verification beforehand from the users&amp;nbsp;&amp;nbsp;" style="ellipse;whiteSpace=wrap;html=1;" parent="1" vertex="1">
          <mxGeometry x="145" y="-2490" width="140" height="70" as="geometry" />
        </mxCell>
        <mxCell id="DAs-1uU9wL7oWLrZRLtQ-166" value="&amp;lt;&amp;lt;include&amp;gt;&amp;gt;" style="text;html=1;strokeColor=none;fillColor=none;align=center;verticalAlign=middle;whiteSpace=wrap;rounded=0;" parent="1" vertex="1">
          <mxGeometry x="35" y="-2450" width="60" height="30" as="geometry" />
        </mxCell>
        <mxCell id="DAs-1uU9wL7oWLrZRLtQ-168" value="Authenticate the user" style="ellipse;whiteSpace=wrap;html=1;" parent="1" vertex="1">
          <mxGeometry x="145" y="-2390" width="140" height="70" as="geometry" />
        </mxCell>
        <mxCell id="DAs-1uU9wL7oWLrZRLtQ-170" value="&amp;lt;&amp;lt;include&amp;gt;&amp;gt;" style="text;html=1;strokeColor=none;fillColor=none;align=center;verticalAlign=middle;whiteSpace=wrap;rounded=0;" parent="1" vertex="1">
          <mxGeometry x="75" y="-2400" width="60" height="30" as="geometry" />
        </mxCell>
        <mxCell id="DAs-1uU9wL7oWLrZRLtQ-176" style="edgeStyle=none;rounded=0;orthogonalLoop=1;jettySize=auto;html=1;exitX=1;exitY=0.3333333333333333;exitDx=0;exitDy=0;exitPerimeter=0;entryX=0.003;entryY=0.551;entryDx=0;entryDy=0;startArrow=none;startFill=0;endArrow=none;endFill=0;entryPerimeter=0;" parent="1" source="DAs-1uU9wL7oWLrZRLtQ-171" target="DAs-1uU9wL7oWLrZRLtQ-186" edge="1">
          <mxGeometry relative="1" as="geometry">
            <mxPoint x="-207" y="-195" as="targetPoint" />
          </mxGeometry>
        </mxCell>
        <mxCell id="DAs-1uU9wL7oWLrZRLtQ-209" style="edgeStyle=none;rounded=0;orthogonalLoop=1;jettySize=auto;html=1;exitX=1;exitY=0.3333333333333333;exitDx=0;exitDy=0;exitPerimeter=0;entryX=0;entryY=0.5;entryDx=0;entryDy=0;startArrow=none;startFill=0;endArrow=none;endFill=0;" parent="1" source="DAs-1uU9wL7oWLrZRLtQ-171" target="DAs-1uU9wL7oWLrZRLtQ-205" edge="1">
          <mxGeometry relative="1" as="geometry" />
        </mxCell>
        <mxCell id="DAs-1uU9wL7oWLrZRLtQ-171" value="Project Member" style="shape=umlActor;verticalLabelPosition=bottom;verticalAlign=top;html=1;" parent="1" vertex="1">
          <mxGeometry x="-797" y="-130" width="40" height="70" as="geometry" />
        </mxCell>
        <mxCell id="DAs-1uU9wL7oWLrZRLtQ-186" value="" style="shape=ellipse;container=1;horizontal=1;horizontalStack=0;resizeParent=1;resizeParentMax=0;resizeLast=0;html=1;dashed=0;collapsible=0;" parent="1" vertex="1">
          <mxGeometry x="-214.5" y="-220" width="230" height="130" as="geometry" />
        </mxCell>
        <mxCell id="DAs-1uU9wL7oWLrZRLtQ-187" value="Message&amp;nbsp; with project members" style="html=1;strokeColor=none;fillColor=none;align=center;verticalAlign=middle;rotatable=0;" parent="DAs-1uU9wL7oWLrZRLtQ-186" vertex="1">
          <mxGeometry y="48.75" width="220.41666666666666" height="32.5" as="geometry" />
        </mxCell>
        <mxCell id="DAs-1uU9wL7oWLrZRLtQ-197" style="edgeStyle=none;rounded=0;orthogonalLoop=1;jettySize=auto;html=1;exitX=0;exitY=0;exitDx=0;exitDy=0;exitPerimeter=0;startArrow=none;startFill=0;endArrow=classic;endFill=1;dashed=1;" parent="1" source="DAs-1uU9wL7oWLrZRLtQ-196" edge="1">
          <mxGeometry relative="1" as="geometry">
            <mxPoint x="130" y="-250" as="targetPoint" />
          </mxGeometry>
        </mxCell>
        <mxCell id="DAs-1uU9wL7oWLrZRLtQ-201" style="edgeStyle=none;rounded=0;orthogonalLoop=1;jettySize=auto;html=1;exitX=0;exitY=1;exitDx=0;exitDy=0;exitPerimeter=0;startArrow=none;startFill=0;endArrow=classic;endFill=1;dashed=1;" parent="1" source="DAs-1uU9wL7oWLrZRLtQ-196" edge="1">
          <mxGeometry relative="1" as="geometry">
            <mxPoint x="160" y="-90" as="targetPoint" />
          </mxGeometry>
        </mxCell>
        <mxCell id="DAs-1uU9wL7oWLrZRLtQ-196" value="Condition: If feature is only allowed if the member is part of a project and has a leader or only he is a member of a group" style="shape=note2;boundedLbl=1;whiteSpace=wrap;html=1;size=11;verticalAlign=top;align=center;" parent="1" vertex="1">
          <mxGeometry x="177.5" y="-220" width="290" height="62" as="geometry" />
        </mxCell>
        <mxCell id="DAs-1uU9wL7oWLrZRLtQ-200" style="edgeStyle=none;rounded=0;orthogonalLoop=1;jettySize=auto;html=1;exitX=0;exitY=0.5;exitDx=0;exitDy=0;entryX=0.977;entryY=0.688;entryDx=0;entryDy=0;entryPerimeter=0;startArrow=none;startFill=0;endArrow=classic;endFill=1;dashed=1;" parent="1" source="DAs-1uU9wL7oWLrZRLtQ-199" target="DAs-1uU9wL7oWLrZRLtQ-186" edge="1">
          <mxGeometry relative="1" as="geometry" />
        </mxCell>
        <mxCell id="DAs-1uU9wL7oWLrZRLtQ-199" value="Tagging relevant member or project leader" style="ellipse;whiteSpace=wrap;html=1;" parent="1" vertex="1">
          <mxGeometry x="225.5" y="-120" width="140" height="70" as="geometry" />
        </mxCell>
        <mxCell id="DAs-1uU9wL7oWLrZRLtQ-202" value="&amp;lt;&amp;lt;extends&amp;gt;&amp;gt;" style="text;html=1;strokeColor=none;fillColor=none;align=center;verticalAlign=middle;whiteSpace=wrap;rounded=0;" parent="1" vertex="1">
          <mxGeometry x="95.5" y="-140" width="60" height="30" as="geometry" />
        </mxCell>
        <mxCell id="DAs-1uU9wL7oWLrZRLtQ-205" value="Accept new tasks" style="ellipse;whiteSpace=wrap;html=1;" parent="1" vertex="1">
          <mxGeometry x="-162" y="50" width="140" height="70" as="geometry" />
        </mxCell>
        <mxCell id="DAs-1uU9wL7oWLrZRLtQ-212" value="Select the relevant project" style="ellipse;whiteSpace=wrap;html=1;" parent="1" vertex="1">
          <mxGeometry x="188" y="-340" width="140" height="70" as="geometry" />
        </mxCell>
        <mxCell id="DAs-1uU9wL7oWLrZRLtQ-213" style="edgeStyle=none;rounded=0;orthogonalLoop=1;jettySize=auto;html=1;exitX=1.009;exitY=0.444;exitDx=0;exitDy=0;startArrow=none;startFill=0;endArrow=classic;endFill=1;exitPerimeter=0;dashed=1;entryX=0;entryY=0.5;entryDx=0;entryDy=0;" parent="1" source="DAs-1uU9wL7oWLrZRLtQ-186" target="DAs-1uU9wL7oWLrZRLtQ-212" edge="1">
          <mxGeometry relative="1" as="geometry">
            <mxPoint x="11.620000000000118" y="-233.84000000000015" as="sourcePoint" />
            <mxPoint x="281.6735783584486" y="-308.12494438051317" as="targetPoint" />
          </mxGeometry>
        </mxCell>
        <mxCell id="DAs-1uU9wL7oWLrZRLtQ-214" value="&amp;lt;&amp;lt;include&amp;gt;&amp;gt;" style="text;html=1;strokeColor=none;fillColor=none;align=center;verticalAlign=middle;whiteSpace=wrap;rounded=0;" parent="1" vertex="1">
          <mxGeometry x="61.75" y="-280" width="57.5" height="30" as="geometry" />
        </mxCell>
        <mxCell id="DAs-1uU9wL7oWLrZRLtQ-230" style="edgeStyle=none;rounded=0;orthogonalLoop=1;jettySize=auto;html=1;exitX=0;exitY=0.5;exitDx=0;exitDy=0;entryX=1;entryY=0.3333333333333333;entryDx=0;entryDy=0;entryPerimeter=0;startArrow=none;startFill=0;endArrow=none;endFill=0;" parent="1" source="DAs-1uU9wL7oWLrZRLtQ-229" target="DAs-1uU9wL7oWLrZRLtQ-171" edge="1">
          <mxGeometry relative="1" as="geometry" />
        </mxCell>
        <mxCell id="DAs-1uU9wL7oWLrZRLtQ-229" value="Notify upon a completion of a task(s)&amp;nbsp;" style="ellipse;whiteSpace=wrap;html=1;" parent="1" vertex="1">
          <mxGeometry x="-162" y="300" width="140" height="70" as="geometry" />
        </mxCell>
        <mxCell id="DAs-1uU9wL7oWLrZRLtQ-246" style="edgeStyle=none;rounded=0;orthogonalLoop=1;jettySize=auto;html=1;exitX=0.5;exitY=0;exitDx=0;exitDy=0;exitPerimeter=0;startArrow=none;startFill=0;endArrow=classic;endFill=1;" parent="1" source="DAs-1uU9wL7oWLrZRLtQ-234" edge="1">
          <mxGeometry relative="1" as="geometry">
            <mxPoint x="-702" y="847.5" as="targetPoint" />
          </mxGeometry>
        </mxCell>
        <mxCell id="DAs-1uU9wL7oWLrZRLtQ-259" style="edgeStyle=none;rounded=0;orthogonalLoop=1;jettySize=auto;html=1;exitX=1;exitY=0.3333333333333333;exitDx=0;exitDy=0;exitPerimeter=0;entryX=0;entryY=0.5;entryDx=0;entryDy=0;startArrow=none;startFill=0;endArrow=none;endFill=0;" parent="1" source="DAs-1uU9wL7oWLrZRLtQ-234" target="DAs-1uU9wL7oWLrZRLtQ-248" edge="1">
          <mxGeometry relative="1" as="geometry" />
        </mxCell>
        <mxCell id="DAs-1uU9wL7oWLrZRLtQ-277" style="edgeStyle=none;rounded=0;orthogonalLoop=1;jettySize=auto;html=1;exitX=1;exitY=0.3333333333333333;exitDx=0;exitDy=0;exitPerimeter=0;entryX=0;entryY=0.5;entryDx=0;entryDy=0;startArrow=none;startFill=0;endArrow=none;endFill=0;" parent="1" source="DAs-1uU9wL7oWLrZRLtQ-234" target="DAs-1uU9wL7oWLrZRLtQ-278" edge="1">
          <mxGeometry relative="1" as="geometry" />
        </mxCell>
        <mxCell id="DAs-1uU9wL7oWLrZRLtQ-344" style="edgeStyle=none;rounded=0;orthogonalLoop=1;jettySize=auto;html=1;exitX=1;exitY=0.3333333333333333;exitDx=0;exitDy=0;exitPerimeter=0;entryX=0;entryY=0.5;entryDx=0;entryDy=0;startArrow=none;startFill=0;endArrow=none;endFill=0;" parent="1" source="DAs-1uU9wL7oWLrZRLtQ-234" edge="1" target="wPcG4ol8Kc2qVvm0i4W1-57">
          <mxGeometry relative="1" as="geometry">
            <mxPoint x="-104.49999999999727" y="1295" as="targetPoint" />
          </mxGeometry>
        </mxCell>
        <mxCell id="DAs-1uU9wL7oWLrZRLtQ-346" style="edgeStyle=none;rounded=0;orthogonalLoop=1;jettySize=auto;html=1;exitX=1;exitY=0.3333333333333333;exitDx=0;exitDy=0;exitPerimeter=0;entryX=0;entryY=0.5;entryDx=0;entryDy=0;startArrow=none;startFill=0;endArrow=none;endFill=0;" parent="1" source="DAs-1uU9wL7oWLrZRLtQ-234" target="DAs-1uU9wL7oWLrZRLtQ-339" edge="1">
          <mxGeometry relative="1" as="geometry" />
        </mxCell>
        <mxCell id="DAs-1uU9wL7oWLrZRLtQ-234" value="Project leader" style="shape=umlActor;verticalLabelPosition=bottom;verticalAlign=top;html=1;" parent="1" vertex="1">
          <mxGeometry x="-722" y="917.5" width="40" height="70" as="geometry" />
        </mxCell>
        <mxCell id="DAs-1uU9wL7oWLrZRLtQ-237" value="User" style="shape=umlActor;verticalLabelPosition=bottom;verticalAlign=top;html=1;" parent="1" vertex="1">
          <mxGeometry x="-722" y="3450" width="40" height="70" as="geometry" />
        </mxCell>
        <mxCell id="DAs-1uU9wL7oWLrZRLtQ-241" value="Project member" style="shape=umlActor;verticalLabelPosition=bottom;verticalAlign=top;html=1;" parent="1" vertex="1">
          <mxGeometry x="-722" y="742.5" width="40" height="70" as="geometry" />
        </mxCell>
        <mxCell id="DAs-1uU9wL7oWLrZRLtQ-248" value="Create and Delete groups" style="ellipse;whiteSpace=wrap;html=1;" parent="1" vertex="1">
          <mxGeometry x="-129.5" y="540" width="140" height="70" as="geometry" />
        </mxCell>
        <mxCell id="DAs-1uU9wL7oWLrZRLtQ-278" value="Give feedback on the progress of the project or each task" style="ellipse;whiteSpace=wrap;html=1;" parent="1" vertex="1">
          <mxGeometry x="-22" y="1030" width="150" height="70" as="geometry" />
        </mxCell>
        <mxCell id="DAs-1uU9wL7oWLrZRLtQ-281" style="edgeStyle=none;rounded=0;orthogonalLoop=1;jettySize=auto;html=1;exitX=0.5;exitY=0;exitDx=0;exitDy=0;exitPerimeter=0;startArrow=none;startFill=0;endArrow=classic;endFill=1;" parent="1" source="DAs-1uU9wL7oWLrZRLtQ-282" edge="1">
          <mxGeometry relative="1" as="geometry">
            <mxPoint x="-662" y="2205" as="targetPoint" />
          </mxGeometry>
        </mxCell>
        <mxCell id="DAs-1uU9wL7oWLrZRLtQ-282" value="Group leader" style="shape=umlActor;verticalLabelPosition=bottom;verticalAlign=top;html=1;" parent="1" vertex="1">
          <mxGeometry x="-682" y="2275" width="40" height="70" as="geometry" />
        </mxCell>
        <mxCell id="DAs-1uU9wL7oWLrZRLtQ-283" value="User" style="shape=umlActor;verticalLabelPosition=bottom;verticalAlign=top;html=1;" parent="1" vertex="1">
          <mxGeometry x="-682" y="2100" width="40" height="70" as="geometry" />
        </mxCell>
        <mxCell id="DAs-1uU9wL7oWLrZRLtQ-284" value="Set time frames for tasks within a group" style="ellipse;whiteSpace=wrap;html=1;" parent="1" vertex="1">
          <mxGeometry x="-52.5" y="2270" width="150" height="70" as="geometry" />
        </mxCell>
        <mxCell id="DAs-1uU9wL7oWLrZRLtQ-285" value="Give feedback on progress of the group tasks" style="ellipse;whiteSpace=wrap;html=1;" parent="1" vertex="1">
          <mxGeometry x="-57" y="2070" width="150" height="70" as="geometry" />
        </mxCell>
        <mxCell id="DAs-1uU9wL7oWLrZRLtQ-292" style="edgeStyle=none;rounded=0;orthogonalLoop=1;jettySize=auto;html=1;exitX=0.5;exitY=0;exitDx=0;exitDy=0;entryX=0.5;entryY=1;entryDx=0;entryDy=0;startArrow=none;startFill=0;endArrow=classic;endFill=1;" parent="1" source="DAs-1uU9wL7oWLrZRLtQ-289" target="DAs-1uU9wL7oWLrZRLtQ-284" edge="1">
          <mxGeometry relative="1" as="geometry" />
        </mxCell>
        <mxCell id="DAs-1uU9wL7oWLrZRLtQ-289" value="Extend deadlines" style="ellipse;whiteSpace=wrap;html=1;" parent="1" vertex="1">
          <mxGeometry x="-202.5" y="2390" width="150" height="70" as="geometry" />
        </mxCell>
        <mxCell id="DAs-1uU9wL7oWLrZRLtQ-293" style="edgeStyle=none;rounded=0;orthogonalLoop=1;jettySize=auto;html=1;exitX=0.5;exitY=0;exitDx=0;exitDy=0;startArrow=none;startFill=0;endArrow=classic;endFill=1;entryX=0.5;entryY=1;entryDx=0;entryDy=0;" parent="1" source="DAs-1uU9wL7oWLrZRLtQ-290" target="DAs-1uU9wL7oWLrZRLtQ-284" edge="1">
          <mxGeometry relative="1" as="geometry">
            <mxPoint x="8" y="2550" as="targetPoint" />
          </mxGeometry>
        </mxCell>
        <mxCell id="DAs-1uU9wL7oWLrZRLtQ-290" value="Set deadlines" style="ellipse;whiteSpace=wrap;html=1;" parent="1" vertex="1">
          <mxGeometry x="63" y="2390" width="150" height="70" as="geometry" />
        </mxCell>
        <mxCell id="DAs-1uU9wL7oWLrZRLtQ-299" style="edgeStyle=none;rounded=0;orthogonalLoop=1;jettySize=auto;html=1;exitX=0.5;exitY=0;exitDx=0;exitDy=0;exitPerimeter=0;startArrow=none;startFill=0;endArrow=classic;endFill=1;" parent="1" source="DAs-1uU9wL7oWLrZRLtQ-300" target="DAs-1uU9wL7oWLrZRLtQ-301" edge="1">
          <mxGeometry relative="1" as="geometry">
            <mxPoint x="-654.9999999999998" y="2675" as="targetPoint" />
          </mxGeometry>
        </mxCell>
        <mxCell id="DAs-1uU9wL7oWLrZRLtQ-312" style="edgeStyle=none;rounded=0;orthogonalLoop=1;jettySize=auto;html=1;exitX=1;exitY=0.3333333333333333;exitDx=0;exitDy=0;exitPerimeter=0;entryX=0;entryY=0.5;entryDx=0;entryDy=0;startArrow=none;startFill=0;endArrow=classic;endFill=1;" parent="1" source="DAs-1uU9wL7oWLrZRLtQ-300" target="DAs-1uU9wL7oWLrZRLtQ-305" edge="1">
          <mxGeometry relative="1" as="geometry" />
        </mxCell>
        <mxCell id="DAs-1uU9wL7oWLrZRLtQ-300" value="Group member" style="shape=umlActor;verticalLabelPosition=bottom;verticalAlign=top;html=1;" parent="1" vertex="1">
          <mxGeometry x="-675" y="2745" width="40" height="70" as="geometry" />
        </mxCell>
        <mxCell id="DAs-1uU9wL7oWLrZRLtQ-301" value="Member" style="shape=umlActor;verticalLabelPosition=bottom;verticalAlign=top;html=1;" parent="1" vertex="1">
          <mxGeometry x="-675" y="2600" width="40" height="70" as="geometry" />
        </mxCell>
        <mxCell id="DAs-1uU9wL7oWLrZRLtQ-305" value="Select tasks within the group" style="ellipse;whiteSpace=wrap;html=1;" parent="1" vertex="1">
          <mxGeometry x="-90" y="2720" width="150" height="70" as="geometry" />
        </mxCell>
        <mxCell id="DAs-1uU9wL7oWLrZRLtQ-318" value="Assign or remove members to groups" style="ellipse;whiteSpace=wrap;html=1;" parent="1" vertex="1">
          <mxGeometry x="-129.5" y="710" width="140" height="70" as="geometry" />
        </mxCell>
        <mxCell id="DAs-1uU9wL7oWLrZRLtQ-323" style="edgeStyle=none;rounded=0;orthogonalLoop=1;jettySize=auto;html=1;exitX=0.5;exitY=0;exitDx=0;exitDy=0;entryX=0.5;entryY=1;entryDx=0;entryDy=0;startArrow=none;startFill=0;endArrow=classic;endFill=1;" parent="1" source="DAs-1uU9wL7oWLrZRLtQ-324" edge="1" target="wPcG4ol8Kc2qVvm0i4W1-56">
          <mxGeometry relative="1" as="geometry">
            <mxPoint x="-29.5" y="1330" as="targetPoint" />
          </mxGeometry>
        </mxCell>
        <mxCell id="DAs-1uU9wL7oWLrZRLtQ-324" value="Extend deadlines" style="ellipse;whiteSpace=wrap;html=1;" parent="1" vertex="1">
          <mxGeometry x="131" y="1390" width="150" height="70" as="geometry" />
        </mxCell>
        <mxCell id="DAs-1uU9wL7oWLrZRLtQ-325" style="edgeStyle=none;rounded=0;orthogonalLoop=1;jettySize=auto;html=1;exitX=0.5;exitY=0;exitDx=0;exitDy=0;startArrow=none;startFill=0;endArrow=classic;endFill=1;entryX=0.5;entryY=1;entryDx=0;entryDy=0;" parent="1" source="DAs-1uU9wL7oWLrZRLtQ-326" edge="1" target="wPcG4ol8Kc2qVvm0i4W1-56">
          <mxGeometry relative="1" as="geometry">
            <mxPoint x="-29.5" y="1330" as="targetPoint" />
          </mxGeometry>
        </mxCell>
        <mxCell id="DAs-1uU9wL7oWLrZRLtQ-326" value="Set deadlines" style="ellipse;whiteSpace=wrap;html=1;" parent="1" vertex="1">
          <mxGeometry x="-117" y="1390" width="150" height="70" as="geometry" />
        </mxCell>
        <mxCell id="DAs-1uU9wL7oWLrZRLtQ-335" value="Assign group leader" style="ellipse;whiteSpace=wrap;html=1;" parent="1" vertex="1">
          <mxGeometry x="-134.5" y="620" width="150" height="70" as="geometry" />
        </mxCell>
        <mxCell id="DAs-1uU9wL7oWLrZRLtQ-339" value="Dropping members" style="ellipse;whiteSpace=wrap;html=1;" parent="1" vertex="1">
          <mxGeometry x="-102.5" y="1740" width="150" height="70" as="geometry" />
        </mxCell>
        <mxCell id="3pXCj3X9z9kMgJVRjl_V-7" style="edgeStyle=none;rounded=0;orthogonalLoop=1;jettySize=auto;html=1;exitX=1;exitY=0.3333333333333333;exitDx=0;exitDy=0;exitPerimeter=0;startArrow=none;startFill=0;endArrow=none;endFill=0;" parent="1" source="DAs-1uU9wL7oWLrZRLtQ-234" target="DAs-1uU9wL7oWLrZRLtQ-335" edge="1">
          <mxGeometry relative="1" as="geometry">
            <mxPoint x="-672" y="950.833333333333" as="sourcePoint" />
            <mxPoint x="-147" y="515" as="targetPoint" />
          </mxGeometry>
        </mxCell>
        <mxCell id="3pXCj3X9z9kMgJVRjl_V-8" style="edgeStyle=none;rounded=0;orthogonalLoop=1;jettySize=auto;html=1;exitX=1;exitY=0.3333333333333333;exitDx=0;exitDy=0;exitPerimeter=0;entryX=0.05;entryY=0.7;entryDx=0;entryDy=0;startArrow=none;startFill=0;endArrow=none;endFill=0;entryPerimeter=0;" parent="1" source="DAs-1uU9wL7oWLrZRLtQ-234" target="DAs-1uU9wL7oWLrZRLtQ-318" edge="1">
          <mxGeometry relative="1" as="geometry">
            <mxPoint x="-662" y="960.833333333333" as="sourcePoint" />
            <mxPoint x="-137" y="525" as="targetPoint" />
          </mxGeometry>
        </mxCell>
        <mxCell id="3pXCj3X9z9kMgJVRjl_V-10" value="&lt;font face=&quot;Calibri, sans-serif&quot;&gt;&lt;span style=&quot;font-size: 14.6667px;&quot;&gt;Add tasks to to-do list&amp;nbsp;&lt;/span&gt;&lt;/font&gt;" style="ellipse;whiteSpace=wrap;html=1;" parent="1" vertex="1">
          <mxGeometry x="-119.5" y="465" width="120" height="60" as="geometry" />
        </mxCell>
        <mxCell id="3pXCj3X9z9kMgJVRjl_V-11" style="edgeStyle=none;rounded=0;orthogonalLoop=1;jettySize=auto;html=1;exitX=1;exitY=0.3333333333333333;exitDx=0;exitDy=0;exitPerimeter=0;entryX=0;entryY=0.5;entryDx=0;entryDy=0;startArrow=none;startFill=0;endArrow=none;endFill=0;" parent="1" source="DAs-1uU9wL7oWLrZRLtQ-234" target="3pXCj3X9z9kMgJVRjl_V-10" edge="1">
          <mxGeometry relative="1" as="geometry">
            <mxPoint x="-672" y="950.833333333333" as="sourcePoint" />
            <mxPoint x="-127" y="575" as="targetPoint" />
          </mxGeometry>
        </mxCell>
        <mxCell id="3pXCj3X9z9kMgJVRjl_V-12" value="Select relevant project or task of the project" style="ellipse;whiteSpace=wrap;html=1;" parent="1" vertex="1">
          <mxGeometry x="260.5" y="1030" width="150" height="70" as="geometry" />
        </mxCell>
        <mxCell id="3pXCj3X9z9kMgJVRjl_V-17" value="" style="endArrow=block;dashed=1;endFill=0;endSize=12;html=1;exitX=1;exitY=0.5;exitDx=0;exitDy=0;" parent="1" source="DAs-1uU9wL7oWLrZRLtQ-278" target="3pXCj3X9z9kMgJVRjl_V-12" edge="1">
          <mxGeometry width="160" relative="1" as="geometry">
            <mxPoint x="-267" y="1110" as="sourcePoint" />
            <mxPoint x="-107" y="1110" as="targetPoint" />
          </mxGeometry>
        </mxCell>
        <mxCell id="3pXCj3X9z9kMgJVRjl_V-20" value="&amp;lt;&amp;lt;include&amp;gt;&amp;gt;" style="text;html=1;strokeColor=none;fillColor=none;align=center;verticalAlign=middle;whiteSpace=wrap;rounded=0;" parent="1" vertex="1">
          <mxGeometry x="149.75" y="1030" width="60" height="30" as="geometry" />
        </mxCell>
        <mxCell id="3pXCj3X9z9kMgJVRjl_V-24" value="Send a warning message including the reason" style="ellipse;whiteSpace=wrap;html=1;" parent="1" vertex="1">
          <mxGeometry x="263" y="1640" width="150" height="70" as="geometry" />
        </mxCell>
        <mxCell id="3pXCj3X9z9kMgJVRjl_V-25" value="Verify user action" style="ellipse;whiteSpace=wrap;html=1;" parent="1" vertex="1">
          <mxGeometry x="263" y="1740" width="150" height="70" as="geometry" />
        </mxCell>
        <mxCell id="3pXCj3X9z9kMgJVRjl_V-26" value="" style="endArrow=block;dashed=1;endFill=0;endSize=12;html=1;exitX=1;exitY=0.5;exitDx=0;exitDy=0;entryX=0;entryY=0.5;entryDx=0;entryDy=0;" parent="1" source="DAs-1uU9wL7oWLrZRLtQ-339" target="3pXCj3X9z9kMgJVRjl_V-24" edge="1">
          <mxGeometry width="160" relative="1" as="geometry">
            <mxPoint x="-17" y="1759.2400000000002" as="sourcePoint" />
            <mxPoint x="137.11099272137108" y="1710.0000995473397" as="targetPoint" />
          </mxGeometry>
        </mxCell>
        <mxCell id="3pXCj3X9z9kMgJVRjl_V-27" value="" style="endArrow=block;dashed=1;endFill=0;endSize=12;html=1;exitX=1;exitY=0.5;exitDx=0;exitDy=0;" parent="1" source="DAs-1uU9wL7oWLrZRLtQ-339" target="3pXCj3X9z9kMgJVRjl_V-25" edge="1">
          <mxGeometry width="160" relative="1" as="geometry">
            <mxPoint x="-7" y="1765" as="sourcePoint" />
            <mxPoint x="168" y="1725" as="targetPoint" />
          </mxGeometry>
        </mxCell>
        <mxCell id="3pXCj3X9z9kMgJVRjl_V-28" value="&amp;lt;&amp;lt;include&amp;gt;&amp;gt;" style="text;html=1;strokeColor=none;fillColor=none;align=center;verticalAlign=middle;whiteSpace=wrap;rounded=0;" parent="1" vertex="1">
          <mxGeometry x="105.5" y="1700" width="60" height="30" as="geometry" />
        </mxCell>
        <mxCell id="3pXCj3X9z9kMgJVRjl_V-29" value="&amp;lt;&amp;lt;include&amp;gt;&amp;gt;" style="text;html=1;strokeColor=none;fillColor=none;align=center;verticalAlign=middle;whiteSpace=wrap;rounded=0;" parent="1" vertex="1">
          <mxGeometry x="118" y="1770" width="60" height="30" as="geometry" />
        </mxCell>
        <mxCell id="3pXCj3X9z9kMgJVRjl_V-31" value="Give priority for tasks" style="ellipse;whiteSpace=wrap;html=1;" parent="1" vertex="1">
          <mxGeometry x="213" y="405" width="120" height="60" as="geometry" />
        </mxCell>
        <mxCell id="3pXCj3X9z9kMgJVRjl_V-32" value="&amp;lt;&amp;lt;extend&amp;gt;&amp;gt;" style="text;html=1;strokeColor=none;fillColor=none;align=center;verticalAlign=middle;whiteSpace=wrap;rounded=0;" parent="1" vertex="1">
          <mxGeometry x="78" y="420" width="60" height="30" as="geometry" />
        </mxCell>
        <mxCell id="3pXCj3X9z9kMgJVRjl_V-33" value="" style="endArrow=block;dashed=1;endFill=0;endSize=12;html=1;entryX=0.983;entryY=0.4;entryDx=0;entryDy=0;exitX=0;exitY=0.5;exitDx=0;exitDy=0;entryPerimeter=0;" parent="1" source="3pXCj3X9z9kMgJVRjl_V-31" target="3pXCj3X9z9kMgJVRjl_V-10" edge="1">
          <mxGeometry width="160" relative="1" as="geometry">
            <mxPoint x="161.96000000000004" y="480" as="sourcePoint" />
            <mxPoint x="-7" y="483.96000000000004" as="targetPoint" />
          </mxGeometry>
        </mxCell>
        <mxCell id="3pXCj3X9z9kMgJVRjl_V-34" value="Select relevant project, and group" style="ellipse;whiteSpace=wrap;html=1;" parent="1" vertex="1">
          <mxGeometry x="223" y="2190" width="150" height="70" as="geometry" />
        </mxCell>
        <mxCell id="3pXCj3X9z9kMgJVRjl_V-37" value="" style="endArrow=block;dashed=1;endFill=0;endSize=12;html=1;exitX=1;exitY=0.5;exitDx=0;exitDy=0;entryX=0;entryY=0.5;entryDx=0;entryDy=0;" parent="1" source="wPcG4ol8Kc2qVvm0i4W1-24" target="3pXCj3X9z9kMgJVRjl_V-34" edge="1">
          <mxGeometry width="160" relative="1" as="geometry">
            <mxPoint x="143" y="2170" as="sourcePoint" />
            <mxPoint x="301.6486715058568" y="2228.303657698012" as="targetPoint" />
          </mxGeometry>
        </mxCell>
        <mxCell id="3pXCj3X9z9kMgJVRjl_V-42" value="&amp;lt;&amp;lt;include&amp;gt;&amp;gt;" style="text;html=1;strokeColor=none;fillColor=none;align=center;verticalAlign=middle;whiteSpace=wrap;rounded=0;" parent="1" vertex="1">
          <mxGeometry x="117.5" y="2220" width="60" height="30" as="geometry" />
        </mxCell>
        <mxCell id="3pXCj3X9z9kMgJVRjl_V-48" value="Select relevant project and group" style="ellipse;whiteSpace=wrap;html=1;" parent="1" vertex="1">
          <mxGeometry x="210" y="2700" width="150" height="70" as="geometry" />
        </mxCell>
        <mxCell id="3pXCj3X9z9kMgJVRjl_V-49" value="&amp;lt;&amp;lt;include&amp;gt;&amp;gt;" style="text;html=1;strokeColor=none;fillColor=none;align=center;verticalAlign=middle;whiteSpace=wrap;rounded=0;" parent="1" vertex="1">
          <mxGeometry x="97.5" y="2740" width="60" height="30" as="geometry" />
        </mxCell>
        <mxCell id="3pXCj3X9z9kMgJVRjl_V-52" value="" style="endArrow=block;dashed=1;endFill=0;endSize=12;html=1;entryX=0;entryY=0.5;entryDx=0;entryDy=0;" parent="1" source="DAs-1uU9wL7oWLrZRLtQ-305" target="3pXCj3X9z9kMgJVRjl_V-48" edge="1">
          <mxGeometry width="160" relative="1" as="geometry">
            <mxPoint x="40" y="2645" as="sourcePoint" />
            <mxPoint x="163.03804293517032" y="2704.7613351399395" as="targetPoint" />
          </mxGeometry>
        </mxCell>
        <mxCell id="wPcG4ol8Kc2qVvm0i4W1-2" value="Verify user action" style="ellipse;whiteSpace=wrap;html=1;" parent="1" vertex="1">
          <mxGeometry x="198" y="652.5" width="120" height="60" as="geometry" />
        </mxCell>
        <mxCell id="wPcG4ol8Kc2qVvm0i4W1-3" value="" style="endArrow=block;dashed=1;endFill=0;endSize=12;html=1;exitX=0.989;exitY=0.371;exitDx=0;exitDy=0;exitPerimeter=0;" parent="1" source="DAs-1uU9wL7oWLrZRLtQ-318" target="wPcG4ol8Kc2qVvm0i4W1-2" edge="1">
          <mxGeometry width="160" relative="1" as="geometry">
            <mxPoint x="143" y="720" as="sourcePoint" />
            <mxPoint x="38.460000000000036" y="724" as="targetPoint" />
          </mxGeometry>
        </mxCell>
        <mxCell id="wPcG4ol8Kc2qVvm0i4W1-4" value="&amp;lt;&amp;lt;include&amp;gt;&amp;gt;" style="text;html=1;strokeColor=none;fillColor=none;align=center;verticalAlign=middle;whiteSpace=wrap;rounded=0;" parent="1" vertex="1">
          <mxGeometry x="75" y="712.5" width="60" height="30" as="geometry" />
        </mxCell>
        <mxCell id="wPcG4ol8Kc2qVvm0i4W1-13" value="Dropping tasks where in to-do list" style="ellipse;whiteSpace=wrap;html=1;" parent="1" vertex="1">
          <mxGeometry x="-112" y="1960" width="150" height="70" as="geometry" />
        </mxCell>
        <mxCell id="wPcG4ol8Kc2qVvm0i4W1-14" value="Verify User action" style="ellipse;whiteSpace=wrap;html=1;" parent="1" vertex="1">
          <mxGeometry x="270.5" y="1960" width="150" height="70" as="geometry" />
        </mxCell>
        <mxCell id="wPcG4ol8Kc2qVvm0i4W1-18" value="Select relevant task" style="ellipse;whiteSpace=wrap;html=1;" parent="1" vertex="1">
          <mxGeometry x="238" y="2090" width="150" height="70" as="geometry" />
        </mxCell>
        <mxCell id="wPcG4ol8Kc2qVvm0i4W1-19" value="" style="endArrow=block;dashed=1;endFill=0;endSize=12;html=1;exitX=1;exitY=1;exitDx=0;exitDy=0;entryX=0.077;entryY=0.271;entryDx=0;entryDy=0;entryPerimeter=0;" parent="1" source="DAs-1uU9wL7oWLrZRLtQ-285" target="3pXCj3X9z9kMgJVRjl_V-34" edge="1">
          <mxGeometry width="160" relative="1" as="geometry">
            <mxPoint x="103" y="2225" as="sourcePoint" />
            <mxPoint x="207.37479607955675" y="2256.1002383471723" as="targetPoint" />
          </mxGeometry>
        </mxCell>
        <mxCell id="wPcG4ol8Kc2qVvm0i4W1-20" value="" style="endArrow=block;dashed=1;endFill=0;endSize=12;html=1;exitX=1;exitY=1;exitDx=0;exitDy=0;" parent="1" source="DAs-1uU9wL7oWLrZRLtQ-285" target="wPcG4ol8Kc2qVvm0i4W1-18" edge="1">
          <mxGeometry width="160" relative="1" as="geometry">
            <mxPoint x="81.03300858899092" y="2139.7487373415297" as="sourcePoint" />
            <mxPoint x="207.05000000000018" y="2258.9700000000003" as="targetPoint" />
          </mxGeometry>
        </mxCell>
        <mxCell id="wPcG4ol8Kc2qVvm0i4W1-21" value="&amp;lt;&amp;lt;include&amp;gt;&amp;gt;" style="text;html=1;strokeColor=none;fillColor=none;align=center;verticalAlign=middle;whiteSpace=wrap;rounded=0;" parent="1" vertex="1">
          <mxGeometry x="113" y="2090" width="60" height="30" as="geometry" />
        </mxCell>
        <mxCell id="wPcG4ol8Kc2qVvm0i4W1-23" value="&amp;lt;&amp;lt;include&amp;gt;&amp;gt;" style="text;html=1;strokeColor=none;fillColor=none;align=center;verticalAlign=middle;whiteSpace=wrap;rounded=0;" parent="1" vertex="1">
          <mxGeometry x="110.5" y="2160" width="60" height="30" as="geometry" />
        </mxCell>
        <mxCell id="wPcG4ol8Kc2qVvm0i4W1-24" value="&lt;span style=&quot;font-size:11.0pt;line-height:107%;&lt;br/&gt;font-family:&amp;quot;Calibri&amp;quot;,sans-serif;mso-ascii-theme-font:minor-latin;mso-fareast-font-family:&lt;br/&gt;Calibri;mso-fareast-theme-font:minor-latin;mso-hansi-theme-font:minor-latin;&lt;br/&gt;mso-bidi-font-family:&amp;quot;Times New Roman&amp;quot;;mso-bidi-theme-font:minor-bidi;&lt;br/&gt;mso-ansi-language:EN-US;mso-fareast-language:EN-US;mso-bidi-language:AR-SA&quot;&gt;Schedule&lt;br/&gt;meetings and start meetings in the group&lt;/span&gt;" style="ellipse;whiteSpace=wrap;html=1;" parent="1" vertex="1">
          <mxGeometry x="-57" y="2190" width="150" height="70" as="geometry" />
        </mxCell>
        <mxCell id="wPcG4ol8Kc2qVvm0i4W1-29" value="Check notifications and requests" style="ellipse;whiteSpace=wrap;html=1;" parent="1" vertex="1">
          <mxGeometry x="-42.5" y="-1150" width="140" height="70" as="geometry" />
        </mxCell>
        <mxCell id="wPcG4ol8Kc2qVvm0i4W1-30" style="edgeStyle=none;rounded=0;orthogonalLoop=1;jettySize=auto;html=1;exitX=0;exitY=0.5;exitDx=0;exitDy=0;startArrow=none;startFill=0;endArrow=none;endFill=0;entryX=1;entryY=0.3333333333333333;entryDx=0;entryDy=0;entryPerimeter=0;" parent="1" source="wPcG4ol8Kc2qVvm0i4W1-29" target="DAs-1uU9wL7oWLrZRLtQ-27" edge="1">
          <mxGeometry relative="1" as="geometry">
            <mxPoint x="-247.5" y="-1050" as="sourcePoint" />
            <mxPoint x="-650" y="-990" as="targetPoint" />
          </mxGeometry>
        </mxCell>
        <mxCell id="wPcG4ol8Kc2qVvm0i4W1-31" value="Select relevant project, group and tasks" style="ellipse;whiteSpace=wrap;html=1;" parent="1" vertex="1">
          <mxGeometry x="290.5" y="2275" width="150" height="70" as="geometry" />
        </mxCell>
        <mxCell id="wPcG4ol8Kc2qVvm0i4W1-32" value="" style="endArrow=block;dashed=1;endFill=0;endSize=12;html=1;" parent="1" source="DAs-1uU9wL7oWLrZRLtQ-284" target="wPcG4ol8Kc2qVvm0i4W1-31" edge="1">
          <mxGeometry width="160" relative="1" as="geometry">
            <mxPoint x="175.5" y="2425" as="sourcePoint" />
            <mxPoint x="279.87479607954674" y="2456.1002383471696" as="targetPoint" />
          </mxGeometry>
        </mxCell>
        <mxCell id="wPcG4ol8Kc2qVvm0i4W1-33" value="&amp;lt;&amp;lt;include&amp;gt;&amp;gt;" style="text;html=1;strokeColor=none;fillColor=none;align=center;verticalAlign=middle;whiteSpace=wrap;rounded=0;" parent="1" vertex="1">
          <mxGeometry x="157.5" y="2315" width="60" height="30" as="geometry" />
        </mxCell>
        <mxCell id="wPcG4ol8Kc2qVvm0i4W1-37" value="Send notifications" style="ellipse;whiteSpace=wrap;html=1;" parent="1" vertex="1">
          <mxGeometry x="415.5" y="1370" width="150" height="70" as="geometry" />
        </mxCell>
        <mxCell id="wPcG4ol8Kc2qVvm0i4W1-38" value="" style="endArrow=block;dashed=1;endFill=0;endSize=12;html=1;exitX=0;exitY=0.5;exitDx=0;exitDy=0;entryX=0.967;entryY=0.3;entryDx=0;entryDy=0;entryPerimeter=0;" parent="1" source="wPcG4ol8Kc2qVvm0i4W1-37" target="DAs-1uU9wL7oWLrZRLtQ-324" edge="1">
          <mxGeometry width="160" relative="1" as="geometry">
            <mxPoint x="57" y="1294.0100000000002" as="sourcePoint" />
            <mxPoint x="212.35983463640514" y="1228.4690744898571" as="targetPoint" />
          </mxGeometry>
        </mxCell>
        <mxCell id="wPcG4ol8Kc2qVvm0i4W1-39" value="&amp;lt;&amp;lt;extends&amp;gt;&amp;gt;" style="text;html=1;strokeColor=none;fillColor=none;align=center;verticalAlign=middle;whiteSpace=wrap;rounded=0;" parent="1" vertex="1">
          <mxGeometry x="308" y="1380" width="60" height="30" as="geometry" />
        </mxCell>
        <mxCell id="wPcG4ol8Kc2qVvm0i4W1-42" value="Keep sign in" style="ellipse;whiteSpace=wrap;html=1;" parent="1" vertex="1">
          <mxGeometry x="380" y="-1438" width="140" height="70" as="geometry" />
        </mxCell>
        <mxCell id="wPcG4ol8Kc2qVvm0i4W1-43" style="edgeStyle=none;rounded=0;orthogonalLoop=1;jettySize=auto;html=1;exitX=0;exitY=0.5;exitDx=0;exitDy=0;entryX=0.807;entryY=0.91;entryDx=0;entryDy=0;entryPerimeter=0;endArrow=classic;endFill=1;dashed=1;" parent="1" source="wPcG4ol8Kc2qVvm0i4W1-42" target="DAs-1uU9wL7oWLrZRLtQ-71" edge="1">
          <mxGeometry relative="1" as="geometry">
            <mxPoint x="-85.93000000000029" y="-1493.9250000000002" as="targetPoint" />
            <mxPoint x="104.25" y="-1565" as="sourcePoint" />
          </mxGeometry>
        </mxCell>
        <mxCell id="wPcG4ol8Kc2qVvm0i4W1-44" value="Condition: User click check box" style="shape=note2;boundedLbl=1;whiteSpace=wrap;html=1;size=11;verticalAlign=top;align=center;" parent="1" vertex="1">
          <mxGeometry x="288" y="-1570" width="100" height="62" as="geometry" />
        </mxCell>
        <mxCell id="wPcG4ol8Kc2qVvm0i4W1-45" style="edgeStyle=none;rounded=0;orthogonalLoop=1;jettySize=auto;html=1;dashed=1;endArrow=classic;endFill=1;" parent="1" source="wPcG4ol8Kc2qVvm0i4W1-44" edge="1">
          <mxGeometry relative="1" as="geometry">
            <mxPoint x="154.25" y="-1530" as="sourcePoint" />
            <mxPoint x="310" y="-1450" as="targetPoint" />
          </mxGeometry>
        </mxCell>
        <mxCell id="wPcG4ol8Kc2qVvm0i4W1-46" value="&amp;lt;&amp;lt;extends&amp;gt;&amp;gt;" style="text;html=1;strokeColor=none;fillColor=none;align=center;verticalAlign=middle;whiteSpace=wrap;rounded=0;" parent="1" vertex="1">
          <mxGeometry x="328" y="-1490" width="60" height="30" as="geometry" />
        </mxCell>
        <mxCell id="wPcG4ol8Kc2qVvm0i4W1-56" value="" style="shape=ellipse;container=1;horizontal=1;horizontalStack=0;resizeParent=1;resizeParentMax=0;resizeLast=0;html=1;dashed=0;collapsible=0;" parent="1" vertex="1">
          <mxGeometry x="-9" y="1290" width="175" height="70" as="geometry" />
        </mxCell>
        <mxCell id="wPcG4ol8Kc2qVvm0i4W1-57" value="&lt;span&gt;Set time frames for tasks&lt;/span&gt;" style="html=1;strokeColor=none;fillColor=none;align=center;verticalAlign=middle;rotatable=0;" parent="wPcG4ol8Kc2qVvm0i4W1-56" vertex="1">
          <mxGeometry x="2" y="29.16333333333333" width="175" height="11.666666666666666" as="geometry" />
        </mxCell>
        <mxCell id="wPcG4ol8Kc2qVvm0i4W1-69" style="edgeStyle=none;rounded=0;orthogonalLoop=1;jettySize=auto;html=1;exitX=1;exitY=0.3333333333333333;exitDx=0;exitDy=0;exitPerimeter=0;entryX=0;entryY=0.5;entryDx=0;entryDy=0;startArrow=none;startFill=0;endArrow=none;endFill=0;" parent="1" source="DAs-1uU9wL7oWLrZRLtQ-234" target="wPcG4ol8Kc2qVvm0i4W1-13" edge="1">
          <mxGeometry relative="1" as="geometry">
            <mxPoint x="-672" y="950.833333333333" as="sourcePoint" />
            <mxPoint x="-156.99999999999727" y="1765" as="targetPoint" />
          </mxGeometry>
        </mxCell>
        <mxCell id="wPcG4ol8Kc2qVvm0i4W1-70" value="" style="endArrow=block;dashed=1;endFill=0;endSize=12;html=1;exitX=1;exitY=0.5;exitDx=0;exitDy=0;" parent="1" source="wPcG4ol8Kc2qVvm0i4W1-13" target="wPcG4ol8Kc2qVvm0i4W1-14" edge="1">
          <mxGeometry width="160" relative="1" as="geometry">
            <mxPoint x="-33.69905812245679" y="1791.7755221277694" as="sourcePoint" />
            <mxPoint x="135.50000000000273" y="1885" as="targetPoint" />
          </mxGeometry>
        </mxCell>
        <mxCell id="wPcG4ol8Kc2qVvm0i4W1-71" value="&amp;lt;&amp;lt;include&amp;gt;&amp;gt;" style="text;html=1;strokeColor=none;fillColor=none;align=center;verticalAlign=middle;whiteSpace=wrap;rounded=0;" parent="1" vertex="1">
          <mxGeometry x="123" y="1970" width="60" height="30" as="geometry" />
        </mxCell>
        <mxCell id="wPcG4ol8Kc2qVvm0i4W1-79" value="" style="endArrow=block;dashed=1;endFill=0;endSize=12;html=1;exitX=1;exitY=0.5;exitDx=0;exitDy=0;entryX=0.062;entryY=0.734;entryDx=0;entryDy=0;entryPerimeter=0;" parent="1" source="DAs-1uU9wL7oWLrZRLtQ-335" target="wPcG4ol8Kc2qVvm0i4W1-2" edge="1">
          <mxGeometry width="160" relative="1" as="geometry">
            <mxPoint x="18.960000000000036" y="745.9700000000003" as="sourcePoint" />
            <mxPoint x="158.60369078712347" y="705.0563366234883" as="targetPoint" />
          </mxGeometry>
        </mxCell>
        <mxCell id="wPcG4ol8Kc2qVvm0i4W1-80" value="&amp;lt;&amp;lt;include&amp;gt;&amp;gt;" style="text;html=1;strokeColor=none;fillColor=none;align=center;verticalAlign=middle;whiteSpace=wrap;rounded=0;" parent="1" vertex="1">
          <mxGeometry x="48" y="640" width="60" height="30" as="geometry" />
        </mxCell>
        <mxCell id="wPcG4ol8Kc2qVvm0i4W1-224" style="edgeStyle=orthogonalEdgeStyle;rounded=0;orthogonalLoop=1;jettySize=auto;html=1;exitX=0.5;exitY=1;exitDx=0;exitDy=0;" parent="1" source="wPcG4ol8Kc2qVvm0i4W1-42" target="wPcG4ol8Kc2qVvm0i4W1-42" edge="1">
          <mxGeometry relative="1" as="geometry" />
        </mxCell>
        <mxCell id="wPcG4ol8Kc2qVvm0i4W1-261" style="edgeStyle=orthogonalEdgeStyle;rounded=0;orthogonalLoop=1;jettySize=auto;html=1;exitX=0.5;exitY=1;exitDx=0;exitDy=0;" parent="1" edge="1">
          <mxGeometry relative="1" as="geometry">
            <mxPoint x="280.5" y="-2660" as="sourcePoint" />
            <mxPoint x="280.5" y="-2660" as="targetPoint" />
          </mxGeometry>
        </mxCell>
        <mxCell id="8tIVSy8eOLOCQuPoWcid-1" value="Condition: If the user decides to change account information ask for verification else do nothing&lt;br&gt;" style="shape=note2;boundedLbl=1;whiteSpace=wrap;html=1;size=11;verticalAlign=top;align=center;" parent="1" vertex="1">
          <mxGeometry x="-67.25" y="-1970" width="309.5" height="62" as="geometry" />
        </mxCell>
        <mxCell id="8tIVSy8eOLOCQuPoWcid-2" style="edgeStyle=none;rounded=0;orthogonalLoop=1;jettySize=auto;html=1;exitX=0.5;exitY=1;exitDx=0;exitDy=0;exitPerimeter=0;dashed=1;endArrow=classic;endFill=1;" parent="1" source="8tIVSy8eOLOCQuPoWcid-1" edge="1">
          <mxGeometry relative="1" as="geometry">
            <mxPoint x="294.25" y="-1520" as="sourcePoint" />
            <mxPoint x="160" y="-1790" as="targetPoint" />
          </mxGeometry>
        </mxCell>
        <mxCell id="8tIVSy8eOLOCQuPoWcid-15" style="rounded=0;orthogonalLoop=1;jettySize=auto;html=1;exitX=0;exitY=0.5;exitDx=0;exitDy=0;entryX=1;entryY=0.3333333333333333;entryDx=0;entryDy=0;entryPerimeter=0;startArrow=none;startFill=0;endArrow=none;endFill=0;" parent="1" source="8tIVSy8eOLOCQuPoWcid-13" target="DAs-1uU9wL7oWLrZRLtQ-27" edge="1">
          <mxGeometry relative="1" as="geometry" />
        </mxCell>
        <mxCell id="8tIVSy8eOLOCQuPoWcid-17" style="edgeStyle=none;rounded=0;orthogonalLoop=1;jettySize=auto;html=1;exitX=1;exitY=0.5;exitDx=0;exitDy=0;entryX=0;entryY=0.5;entryDx=0;entryDy=0;startArrow=classic;startFill=1;endArrow=none;endFill=0;dashed=1;" parent="1" source="8tIVSy8eOLOCQuPoWcid-13" target="DAs-1uU9wL7oWLrZRLtQ-78" edge="1">
          <mxGeometry relative="1" as="geometry" />
        </mxCell>
        <mxCell id="8tIVSy8eOLOCQuPoWcid-13" value="View Projects/ Archived projects" style="ellipse;whiteSpace=wrap;html=1;" parent="1" vertex="1">
          <mxGeometry x="-97" y="-2110" width="140" height="70" as="geometry" />
        </mxCell>
        <mxCell id="8tIVSy8eOLOCQuPoWcid-18" value="" style="edgeStyle=none;rounded=0;orthogonalLoop=1;jettySize=auto;html=1;exitX=1;exitY=0.75;exitDx=0;exitDy=0;dashed=1;endArrow=none;endFill=0;startArrow=classic;startFill=1;entryX=0;entryY=0.5;entryDx=0;entryDy=0;" parent="1" source="DAs-1uU9wL7oWLrZRLtQ-82" target="DAs-1uU9wL7oWLrZRLtQ-78" edge="1">
          <mxGeometry relative="1" as="geometry">
            <mxPoint x="-50.9987500000002" y="-1701.6999999999998" as="sourcePoint" />
            <mxPoint x="210" y="-1810" as="targetPoint" />
            <Array as="points">
              <mxPoint x="270" y="-1830" />
            </Array>
          </mxGeometry>
        </mxCell>
        <mxCell id="8tIVSy8eOLOCQuPoWcid-19" value="&amp;lt;&amp;lt;extends&amp;gt;&amp;gt;" style="text;html=1;strokeColor=none;fillColor=none;align=center;verticalAlign=middle;whiteSpace=wrap;rounded=0;" parent="1" vertex="1">
          <mxGeometry x="125.5" y="-1890" width="60" height="30" as="geometry" />
        </mxCell>
        <mxCell id="8tIVSy8eOLOCQuPoWcid-21" style="edgeStyle=none;rounded=0;orthogonalLoop=1;jettySize=auto;html=1;exitX=0;exitY=1;exitDx=0;exitDy=0;exitPerimeter=0;dashed=1;startArrow=none;startFill=0;endArrow=classic;endFill=1;" parent="1" source="8tIVSy8eOLOCQuPoWcid-20" edge="1">
          <mxGeometry relative="1" as="geometry">
            <mxPoint x="210" y="-1990" as="targetPoint" />
          </mxGeometry>
        </mxCell>
        <mxCell id="8tIVSy8eOLOCQuPoWcid-20" value="Condition: If the user decides to make changes then ask for verification" style="shape=note2;boundedLbl=1;whiteSpace=wrap;html=1;size=11;verticalAlign=top;align=center;" parent="1" vertex="1">
          <mxGeometry x="243" y="-2110" width="308" height="60" as="geometry" />
        </mxCell>
        <mxCell id="8tIVSy8eOLOCQuPoWcid-22" value="&amp;lt;&amp;lt;extends&amp;gt;&amp;gt;" style="text;html=1;strokeColor=none;fillColor=none;align=center;verticalAlign=middle;whiteSpace=wrap;rounded=0;" parent="1" vertex="1">
          <mxGeometry x="243" y="-2040" width="60" height="30" as="geometry" />
        </mxCell>
        <mxCell id="8tIVSy8eOLOCQuPoWcid-23" value="&amp;lt;&amp;lt;extends&amp;gt;&amp;gt;" style="text;html=1;strokeColor=none;fillColor=none;align=center;verticalAlign=middle;whiteSpace=wrap;rounded=0;" parent="1" vertex="1">
          <mxGeometry x="-131.5" y="3342" width="60" height="30" as="geometry" />
        </mxCell>
        <mxCell id="8tIVSy8eOLOCQuPoWcid-24" style="edgeStyle=none;rounded=0;orthogonalLoop=1;jettySize=auto;html=1;exitX=1;exitY=0.5;exitDx=0;exitDy=0;entryX=0.225;entryY=0.9;entryDx=0;entryDy=0;startArrow=classic;startFill=1;endArrow=none;endFill=0;dashed=1;entryPerimeter=0;" parent="1" target="DAs-1uU9wL7oWLrZRLtQ-121" edge="1">
          <mxGeometry relative="1" as="geometry">
            <mxPoint x="-70.25" y="3561.25" as="sourcePoint" />
            <mxPoint x="108.5025253169415" y="3619.7487373415292" as="targetPoint" />
          </mxGeometry>
        </mxCell>
        <mxCell id="8tIVSy8eOLOCQuPoWcid-26" style="edgeStyle=none;rounded=0;orthogonalLoop=1;jettySize=auto;html=1;exitX=0;exitY=1;exitDx=0;exitDy=0;exitPerimeter=0;dashed=1;startArrow=none;startFill=0;endArrow=classic;endFill=1;" parent="1" source="8tIVSy8eOLOCQuPoWcid-25" target="DAs-1uU9wL7oWLrZRLtQ-119" edge="1">
          <mxGeometry relative="1" as="geometry" />
        </mxCell>
        <mxCell id="8tIVSy8eOLOCQuPoWcid-25" value="Condition: If the user can comment on the progress or any project aspect" style="shape=note2;boundedLbl=1;whiteSpace=wrap;html=1;size=11;verticalAlign=top;align=center;" parent="1" vertex="1">
          <mxGeometry x="-26.5" y="3280" width="290" height="62" as="geometry" />
        </mxCell>
        <mxCell id="rEP6LGHeJ_S0uSjjWFYm-1" value="Send confirmation message or document" style="ellipse;whiteSpace=wrap;html=1;" parent="1" vertex="1">
          <mxGeometry x="150.5" y="300" width="140" height="70" as="geometry" />
        </mxCell>
        <mxCell id="rEP6LGHeJ_S0uSjjWFYm-2" style="edgeStyle=none;rounded=0;orthogonalLoop=1;jettySize=auto;html=1;startArrow=none;startFill=0;endArrow=classic;endFill=1;dashed=1;entryX=0;entryY=0.5;entryDx=0;entryDy=0;exitX=1;exitY=0.5;exitDx=0;exitDy=0;" parent="1" target="rEP6LGHeJ_S0uSjjWFYm-1" edge="1" source="DAs-1uU9wL7oWLrZRLtQ-229">
          <mxGeometry relative="1" as="geometry">
            <mxPoint x="143" y="30" as="targetPoint" />
            <mxPoint x="-10" y="220" as="sourcePoint" />
          </mxGeometry>
        </mxCell>
        <mxCell id="rEP6LGHeJ_S0uSjjWFYm-3" value="&amp;lt;&amp;lt;include&amp;gt;&amp;gt;" style="text;html=1;strokeColor=none;fillColor=none;align=center;verticalAlign=middle;whiteSpace=wrap;rounded=0;" parent="1" vertex="1">
          <mxGeometry x="35" y="300" width="60" height="30" as="geometry" />
        </mxCell>
        <mxCell id="rEP6LGHeJ_S0uSjjWFYm-4" value="Set timeframe for project" style="ellipse;whiteSpace=wrap;html=1;" parent="1" vertex="1">
          <mxGeometry x="-44.5" y="920" width="162" height="70" as="geometry" />
        </mxCell>
        <mxCell id="rEP6LGHeJ_S0uSjjWFYm-5" style="edgeStyle=none;rounded=0;orthogonalLoop=1;jettySize=auto;html=1;exitX=1;exitY=0.3333333333333333;exitDx=0;exitDy=0;exitPerimeter=0;entryX=0.052;entryY=0.7;entryDx=0;entryDy=0;startArrow=none;startFill=0;endArrow=none;endFill=0;entryPerimeter=0;" parent="1" source="DAs-1uU9wL7oWLrZRLtQ-234" target="rEP6LGHeJ_S0uSjjWFYm-4" edge="1">
          <mxGeometry relative="1" as="geometry">
            <mxPoint x="-672" y="950.833333333333" as="sourcePoint" />
            <mxPoint x="-109.50000000000546" y="505" as="targetPoint" />
          </mxGeometry>
        </mxCell>
        <mxCell id="r_rl-03p8tPwQlVbbB9f-1" value="User" style="shape=umlActor;verticalLabelPosition=bottom;verticalAlign=top;html=1;" vertex="1" parent="1">
          <mxGeometry x="-700" y="3060" width="40" height="70" as="geometry" />
        </mxCell>
        <mxCell id="r_rl-03p8tPwQlVbbB9f-4" value="Check deadlines through Smart calendar" style="ellipse;whiteSpace=wrap;html=1;" vertex="1" parent="1">
          <mxGeometry x="-42" y="-1438" width="140" height="70" as="geometry" />
        </mxCell>
        <mxCell id="r_rl-03p8tPwQlVbbB9f-5" value="Join withy a project by accepting invitation through notificatuions" style="ellipse;whiteSpace=wrap;html=1;" vertex="1" parent="1">
          <mxGeometry x="-44.5" y="-1060" width="140" height="70" as="geometry" />
        </mxCell>
        <mxCell id="r_rl-03p8tPwQlVbbB9f-6" value="Verify user action" style="ellipse;whiteSpace=wrap;html=1;" vertex="1" parent="1">
          <mxGeometry x="355" y="-1060" width="140" height="70" as="geometry" />
        </mxCell>
        <mxCell id="r_rl-03p8tPwQlVbbB9f-7" style="edgeStyle=none;rounded=0;orthogonalLoop=1;jettySize=auto;html=1;exitX=1;exitY=0.5;exitDx=0;exitDy=0;entryX=0;entryY=0.5;entryDx=0;entryDy=0;endArrow=classic;endFill=1;dashed=1;" edge="1" parent="1" source="r_rl-03p8tPwQlVbbB9f-5" target="r_rl-03p8tPwQlVbbB9f-6">
          <mxGeometry relative="1" as="geometry">
            <mxPoint x="-140.75" y="-1405" as="sourcePoint" />
            <mxPoint x="-26.310000000000173" y="-1366.46" as="targetPoint" />
          </mxGeometry>
        </mxCell>
        <mxCell id="r_rl-03p8tPwQlVbbB9f-8" value="&amp;lt;&amp;lt;include&amp;gt;&amp;gt;" style="text;html=1;strokeColor=none;fillColor=none;align=center;verticalAlign=middle;whiteSpace=wrap;rounded=0;" vertex="1" parent="1">
          <mxGeometry x="200.5" y="-1050" width="60" height="30" as="geometry" />
        </mxCell>
        <mxCell id="r_rl-03p8tPwQlVbbB9f-9" style="edgeStyle=none;rounded=0;orthogonalLoop=1;jettySize=auto;html=1;exitX=0;exitY=0.5;exitDx=0;exitDy=0;startArrow=none;startFill=0;endArrow=none;endFill=0;entryX=1;entryY=0.3333333333333333;entryDx=0;entryDy=0;entryPerimeter=0;" edge="1" parent="1" source="r_rl-03p8tPwQlVbbB9f-4" target="DAs-1uU9wL7oWLrZRLtQ-27">
          <mxGeometry relative="1" as="geometry">
            <mxPoint x="-24.500000000003183" y="-1035" as="sourcePoint" />
            <mxPoint x="-665" y="-1446.6666666666665" as="targetPoint" />
          </mxGeometry>
        </mxCell>
        <mxCell id="r_rl-03p8tPwQlVbbB9f-10" style="edgeStyle=none;rounded=0;orthogonalLoop=1;jettySize=auto;html=1;exitX=0;exitY=0.5;exitDx=0;exitDy=0;startArrow=none;startFill=0;endArrow=none;endFill=0;entryX=1;entryY=0.3333333333333333;entryDx=0;entryDy=0;entryPerimeter=0;" edge="1" parent="1" source="r_rl-03p8tPwQlVbbB9f-5" target="DAs-1uU9wL7oWLrZRLtQ-27">
          <mxGeometry relative="1" as="geometry">
            <mxPoint x="-14.500000000003183" y="-1025" as="sourcePoint" />
            <mxPoint x="-655" y="-1436.6666666666665" as="targetPoint" />
          </mxGeometry>
        </mxCell>
        <mxCell id="r_rl-03p8tPwQlVbbB9f-12" value="View All tasks" style="ellipse;whiteSpace=wrap;html=1;" vertex="1" parent="1">
          <mxGeometry x="-167" y="-40" width="140" height="70" as="geometry" />
        </mxCell>
        <mxCell id="r_rl-03p8tPwQlVbbB9f-13" value="View tasks by filtering" style="ellipse;whiteSpace=wrap;html=1;" vertex="1" parent="1">
          <mxGeometry x="102.25" y="-40" width="140" height="70" as="geometry" />
        </mxCell>
        <mxCell id="r_rl-03p8tPwQlVbbB9f-14" style="edgeStyle=none;rounded=0;orthogonalLoop=1;jettySize=auto;html=1;exitX=1;exitY=0.5;exitDx=0;exitDy=0;startArrow=none;startFill=0;endArrow=classic;endFill=1;dashed=1;" edge="1" parent="1" source="r_rl-03p8tPwQlVbbB9f-12" target="r_rl-03p8tPwQlVbbB9f-13">
          <mxGeometry relative="1" as="geometry">
            <mxPoint x="183" y="119.9699999999998" as="targetPoint" />
            <mxPoint x="-12" y="125" as="sourcePoint" />
          </mxGeometry>
        </mxCell>
        <mxCell id="r_rl-03p8tPwQlVbbB9f-15" value="&amp;lt;&amp;lt;extends&amp;gt;&amp;gt;" style="text;html=1;strokeColor=none;fillColor=none;align=center;verticalAlign=middle;whiteSpace=wrap;rounded=0;" vertex="1" parent="1">
          <mxGeometry x="12.5" y="-30" width="60" height="30" as="geometry" />
        </mxCell>
        <mxCell id="r_rl-03p8tPwQlVbbB9f-16" value="Verify user action" style="ellipse;whiteSpace=wrap;html=1;" vertex="1" parent="1">
          <mxGeometry x="103" y="50" width="140" height="70" as="geometry" />
        </mxCell>
        <mxCell id="r_rl-03p8tPwQlVbbB9f-17" value="&amp;lt;&amp;lt;include&amp;gt;&amp;gt;" style="text;html=1;strokeColor=none;fillColor=none;align=center;verticalAlign=middle;whiteSpace=wrap;rounded=0;" vertex="1" parent="1">
          <mxGeometry x="10.5" y="60" width="60" height="30" as="geometry" />
        </mxCell>
        <mxCell id="r_rl-03p8tPwQlVbbB9f-18" style="edgeStyle=none;rounded=0;orthogonalLoop=1;jettySize=auto;html=1;startArrow=none;startFill=0;endArrow=classic;endFill=1;dashed=1;entryX=0;entryY=0.5;entryDx=0;entryDy=0;exitX=1;exitY=0.5;exitDx=0;exitDy=0;" edge="1" parent="1" source="DAs-1uU9wL7oWLrZRLtQ-205" target="r_rl-03p8tPwQlVbbB9f-16">
          <mxGeometry relative="1" as="geometry">
            <mxPoint x="158" y="235" as="targetPoint" />
            <mxPoint y="230" as="sourcePoint" />
          </mxGeometry>
        </mxCell>
        <mxCell id="r_rl-03p8tPwQlVbbB9f-19" value="Get documentation on each task" style="ellipse;whiteSpace=wrap;html=1;" vertex="1" parent="1">
          <mxGeometry x="-166.5" y="130" width="140" height="70" as="geometry" />
        </mxCell>
        <mxCell id="r_rl-03p8tPwQlVbbB9f-20" value="&lt;p class=&quot;MsoListParagraph&quot;&gt;Send replies for feedbacks&lt;/p&gt;" style="ellipse;whiteSpace=wrap;html=1;" vertex="1" parent="1">
          <mxGeometry x="-167" y="-410" width="140" height="70" as="geometry" />
        </mxCell>
        <mxCell id="r_rl-03p8tPwQlVbbB9f-21" value="&lt;p class=&quot;MsoListParagraph&quot;&gt;View analyzes of the project&lt;/p&gt;" style="ellipse;whiteSpace=wrap;html=1;" vertex="1" parent="1">
          <mxGeometry x="-166.5" y="-311" width="140" height="70" as="geometry" />
        </mxCell>
        <mxCell id="r_rl-03p8tPwQlVbbB9f-22" value="Check notifications which are related to project" style="ellipse;whiteSpace=wrap;html=1;" vertex="1" parent="1">
          <mxGeometry x="-166.5" y="-500" width="140" height="70" as="geometry" />
        </mxCell>
        <mxCell id="r_rl-03p8tPwQlVbbB9f-23" value="&lt;p style=&quot;text-indent:-.25in;mso-list:l0 level1 lfo1;&lt;br/&gt;tab-stops:list .5in&quot; class=&quot;MsoListParagraph&quot;&gt;&lt;span style=&quot;font-family:Symbol;&lt;br/&gt;mso-fareast-font-family:Symbol;mso-bidi-font-family:Symbol&quot;&gt;&lt;span style=&quot;font-variant-numeric: normal; font-variant-east-asian: normal; font-stretch: normal; font-size: 7pt; line-height: normal; font-family: &amp;quot;Times New Roman&amp;quot;;&quot;&gt;&amp;nbsp;&lt;/span&gt;&lt;/span&gt;Upload files which related to the project&lt;/p&gt;" style="ellipse;whiteSpace=wrap;html=1;" vertex="1" parent="1">
          <mxGeometry x="-167" y="-600" width="140" height="70" as="geometry" />
        </mxCell>
        <mxCell id="r_rl-03p8tPwQlVbbB9f-24" value="&lt;p class=&quot;MsoListParagraph&quot;&gt;&lt;span style=&quot;font-size:11.0pt;line-height:107%;&lt;br/&gt;font-family:&amp;quot;Calibri&amp;quot;,sans-serif;mso-ascii-theme-font:minor-latin;mso-fareast-font-family:&lt;br/&gt;Calibri;mso-fareast-theme-font:minor-latin;mso-hansi-theme-font:minor-latin;&lt;br/&gt;mso-bidi-font-family:&amp;quot;Times New Roman&amp;quot;;mso-bidi-theme-font:minor-bidi;&lt;br/&gt;mso-ansi-language:EN-US;mso-fareast-language:EN-US;mso-bidi-language:AR-SA&quot;&gt;View&lt;br/&gt;groups which are assigned him&lt;/span&gt;&lt;br&gt;&lt;/p&gt;" style="ellipse;whiteSpace=wrap;html=1;" vertex="1" parent="1">
          <mxGeometry x="-162" y="-690" width="140" height="70" as="geometry" />
        </mxCell>
        <mxCell id="r_rl-03p8tPwQlVbbB9f-25" value="&lt;span style=&quot;font-size:11.0pt;line-height:107%;&lt;br/&gt;font-family:&amp;quot;Calibri&amp;quot;,sans-serif;mso-ascii-theme-font:minor-latin;mso-fareast-font-family:&lt;br/&gt;Calibri;mso-fareast-theme-font:minor-latin;mso-hansi-theme-font:minor-latin;&lt;br/&gt;mso-bidi-font-family:&amp;quot;Times New Roman&amp;quot;;mso-bidi-theme-font:minor-bidi;&lt;br/&gt;mso-ansi-language:EN-US;mso-fareast-language:EN-US;mso-bidi-language:AR-SA&quot;&gt;Check&lt;br/&gt;deadlines related to the project&lt;/span&gt;" style="ellipse;whiteSpace=wrap;html=1;" vertex="1" parent="1">
          <mxGeometry x="-166.5" y="210" width="140" height="70" as="geometry" />
        </mxCell>
        <mxCell id="r_rl-03p8tPwQlVbbB9f-26" style="edgeStyle=none;rounded=0;orthogonalLoop=1;jettySize=auto;html=1;exitX=1;exitY=0.3333333333333333;exitDx=0;exitDy=0;exitPerimeter=0;entryX=0;entryY=0.5;entryDx=0;entryDy=0;startArrow=none;startFill=0;endArrow=none;endFill=0;" edge="1" parent="1" source="DAs-1uU9wL7oWLrZRLtQ-171" target="r_rl-03p8tPwQlVbbB9f-12">
          <mxGeometry relative="1" as="geometry">
            <mxPoint x="-747" y="-96.66666666666697" as="sourcePoint" />
            <mxPoint x="-152" y="95" as="targetPoint" />
          </mxGeometry>
        </mxCell>
        <mxCell id="r_rl-03p8tPwQlVbbB9f-27" style="edgeStyle=none;rounded=0;orthogonalLoop=1;jettySize=auto;html=1;exitX=1;exitY=0.3333333333333333;exitDx=0;exitDy=0;exitPerimeter=0;entryX=0;entryY=0.5;entryDx=0;entryDy=0;startArrow=none;startFill=0;endArrow=none;endFill=0;" edge="1" parent="1" source="DAs-1uU9wL7oWLrZRLtQ-171" target="r_rl-03p8tPwQlVbbB9f-19">
          <mxGeometry relative="1" as="geometry">
            <mxPoint x="-737" y="-86.66666666666697" as="sourcePoint" />
            <mxPoint x="-142" y="105" as="targetPoint" />
          </mxGeometry>
        </mxCell>
        <mxCell id="r_rl-03p8tPwQlVbbB9f-28" style="edgeStyle=none;rounded=0;orthogonalLoop=1;jettySize=auto;html=1;exitX=1;exitY=0.3333333333333333;exitDx=0;exitDy=0;exitPerimeter=0;entryX=0;entryY=0.5;entryDx=0;entryDy=0;startArrow=none;startFill=0;endArrow=none;endFill=0;" edge="1" parent="1" source="DAs-1uU9wL7oWLrZRLtQ-171" target="r_rl-03p8tPwQlVbbB9f-21">
          <mxGeometry relative="1" as="geometry">
            <mxPoint x="-727" y="-76.66666666666697" as="sourcePoint" />
            <mxPoint x="-132" y="115" as="targetPoint" />
          </mxGeometry>
        </mxCell>
        <mxCell id="r_rl-03p8tPwQlVbbB9f-29" style="edgeStyle=none;rounded=0;orthogonalLoop=1;jettySize=auto;html=1;exitX=1;exitY=0.3333333333333333;exitDx=0;exitDy=0;exitPerimeter=0;entryX=0;entryY=0.5;entryDx=0;entryDy=0;startArrow=none;startFill=0;endArrow=none;endFill=0;" edge="1" parent="1" source="DAs-1uU9wL7oWLrZRLtQ-171" target="r_rl-03p8tPwQlVbbB9f-25">
          <mxGeometry relative="1" as="geometry">
            <mxPoint x="-717" y="-66.66666666666697" as="sourcePoint" />
            <mxPoint x="-122" y="125" as="targetPoint" />
          </mxGeometry>
        </mxCell>
        <mxCell id="r_rl-03p8tPwQlVbbB9f-30" style="edgeStyle=none;rounded=0;orthogonalLoop=1;jettySize=auto;html=1;exitX=1;exitY=0.3333333333333333;exitDx=0;exitDy=0;exitPerimeter=0;entryX=0;entryY=0.5;entryDx=0;entryDy=0;startArrow=none;startFill=0;endArrow=none;endFill=0;" edge="1" parent="1" source="DAs-1uU9wL7oWLrZRLtQ-171" target="r_rl-03p8tPwQlVbbB9f-20">
          <mxGeometry relative="1" as="geometry">
            <mxPoint x="-747" y="-96.66666666666697" as="sourcePoint" />
            <mxPoint x="-156.5" y="-266" as="targetPoint" />
          </mxGeometry>
        </mxCell>
        <mxCell id="r_rl-03p8tPwQlVbbB9f-31" style="edgeStyle=none;rounded=0;orthogonalLoop=1;jettySize=auto;html=1;exitX=1;exitY=0.3333333333333333;exitDx=0;exitDy=0;exitPerimeter=0;entryX=0;entryY=0.5;entryDx=0;entryDy=0;startArrow=none;startFill=0;endArrow=none;endFill=0;" edge="1" parent="1" source="DAs-1uU9wL7oWLrZRLtQ-171" target="r_rl-03p8tPwQlVbbB9f-22">
          <mxGeometry relative="1" as="geometry">
            <mxPoint x="-737" y="-86.66666666666697" as="sourcePoint" />
            <mxPoint x="-146.5" y="-256" as="targetPoint" />
          </mxGeometry>
        </mxCell>
        <mxCell id="r_rl-03p8tPwQlVbbB9f-32" style="edgeStyle=none;rounded=0;orthogonalLoop=1;jettySize=auto;html=1;exitX=1;exitY=0.3333333333333333;exitDx=0;exitDy=0;exitPerimeter=0;entryX=0;entryY=0.5;entryDx=0;entryDy=0;startArrow=none;startFill=0;endArrow=none;endFill=0;" edge="1" parent="1" source="DAs-1uU9wL7oWLrZRLtQ-171" target="r_rl-03p8tPwQlVbbB9f-23">
          <mxGeometry relative="1" as="geometry">
            <mxPoint x="-727" y="-76.66666666666697" as="sourcePoint" />
            <mxPoint x="-136.5" y="-246" as="targetPoint" />
          </mxGeometry>
        </mxCell>
        <mxCell id="r_rl-03p8tPwQlVbbB9f-33" style="edgeStyle=none;rounded=0;orthogonalLoop=1;jettySize=auto;html=1;exitX=1;exitY=0.3333333333333333;exitDx=0;exitDy=0;exitPerimeter=0;entryX=0;entryY=0.5;entryDx=0;entryDy=0;startArrow=none;startFill=0;endArrow=none;endFill=0;" edge="1" parent="1" source="DAs-1uU9wL7oWLrZRLtQ-171" target="r_rl-03p8tPwQlVbbB9f-24">
          <mxGeometry relative="1" as="geometry">
            <mxPoint x="-747" y="-96.66666666666697" as="sourcePoint" />
            <mxPoint x="-157" y="-555" as="targetPoint" />
          </mxGeometry>
        </mxCell>
        <mxCell id="r_rl-03p8tPwQlVbbB9f-34" value="Assign a member or group" style="ellipse;whiteSpace=wrap;html=1;" vertex="1" parent="1">
          <mxGeometry x="198" y="530" width="120" height="60" as="geometry" />
        </mxCell>
        <mxCell id="r_rl-03p8tPwQlVbbB9f-35" value="" style="endArrow=block;dashed=1;endFill=0;endSize=12;html=1;entryX=1;entryY=0.5;entryDx=0;entryDy=0;exitX=0;exitY=0.5;exitDx=0;exitDy=0;" edge="1" parent="1" source="r_rl-03p8tPwQlVbbB9f-34" target="3pXCj3X9z9kMgJVRjl_V-10">
          <mxGeometry width="160" relative="1" as="geometry">
            <mxPoint x="193" y="440" as="sourcePoint" />
            <mxPoint x="8.460000000000036" y="499" as="targetPoint" />
          </mxGeometry>
        </mxCell>
        <mxCell id="r_rl-03p8tPwQlVbbB9f-36" value="&amp;lt;&amp;lt;extend&amp;gt;&amp;gt;" style="text;html=1;strokeColor=none;fillColor=none;align=center;verticalAlign=middle;whiteSpace=wrap;rounded=0;" vertex="1" parent="1">
          <mxGeometry x="93" y="540" width="60" height="30" as="geometry" />
        </mxCell>
        <mxCell id="r_rl-03p8tPwQlVbbB9f-37" value="Send messages to the client" style="ellipse;whiteSpace=wrap;html=1;" vertex="1" parent="1">
          <mxGeometry x="-34.5" y="812.5" width="140" height="70" as="geometry" />
        </mxCell>
        <mxCell id="r_rl-03p8tPwQlVbbB9f-43" value="&lt;span style=&quot;font-size:11.0pt;line-height:107%;&lt;br/&gt;font-family:&amp;quot;Calibri&amp;quot;,sans-serif;mso-ascii-theme-font:minor-latin;mso-fareast-font-family:&lt;br/&gt;Calibri;mso-fareast-theme-font:minor-latin;mso-hansi-theme-font:minor-latin;&lt;br/&gt;mso-bidi-font-family:&amp;quot;Times New Roman&amp;quot;;mso-bidi-theme-font:minor-bidi;&lt;br/&gt;mso-ansi-language:EN-US;mso-fareast-language:EN-US;mso-bidi-language:AR-SA&quot;&gt;Schedule&lt;br/&gt;meetings and start meetings&lt;/span&gt;" style="ellipse;whiteSpace=wrap;html=1;" vertex="1" parent="1">
          <mxGeometry x="-77" y="1610" width="140" height="70" as="geometry" />
        </mxCell>
        <mxCell id="r_rl-03p8tPwQlVbbB9f-47" value="Invite members" style="ellipse;whiteSpace=wrap;html=1;" vertex="1" parent="1">
          <mxGeometry x="-96.5" y="1840" width="150" height="70" as="geometry" />
        </mxCell>
        <mxCell id="r_rl-03p8tPwQlVbbB9f-48" value="Send project description" style="ellipse;whiteSpace=wrap;html=1;" vertex="1" parent="1">
          <mxGeometry x="265.5" y="1840" width="150" height="70" as="geometry" />
        </mxCell>
        <mxCell id="r_rl-03p8tPwQlVbbB9f-52" value="" style="endArrow=block;dashed=1;endFill=0;endSize=12;html=1;entryX=1;entryY=0.5;entryDx=0;entryDy=0;exitX=0;exitY=0.5;exitDx=0;exitDy=0;" edge="1" parent="1" source="r_rl-03p8tPwQlVbbB9f-48" target="r_rl-03p8tPwQlVbbB9f-47">
          <mxGeometry width="160" relative="1" as="geometry">
            <mxPoint x="160.5" y="1505" as="sourcePoint" />
            <mxPoint x="39.75" y="1505" as="targetPoint" />
          </mxGeometry>
        </mxCell>
        <mxCell id="r_rl-03p8tPwQlVbbB9f-53" value="&amp;lt;&amp;lt;extends&amp;gt;&amp;gt;" style="text;html=1;strokeColor=none;fillColor=none;align=center;verticalAlign=middle;whiteSpace=wrap;rounded=0;" vertex="1" parent="1">
          <mxGeometry x="123" y="1850" width="60" height="30" as="geometry" />
        </mxCell>
        <mxCell id="r_rl-03p8tPwQlVbbB9f-56" value="&lt;span style=&quot;font-size:11.0pt;line-height:107%;&lt;br/&gt;font-family:&amp;quot;Calibri&amp;quot;,sans-serif;mso-ascii-theme-font:minor-latin;mso-fareast-font-family:&lt;br/&gt;Calibri;mso-fareast-theme-font:minor-latin;mso-hansi-theme-font:minor-latin;&lt;br/&gt;mso-bidi-font-family:&amp;quot;Times New Roman&amp;quot;;mso-bidi-theme-font:minor-bidi;&lt;br/&gt;mso-ansi-language:EN-US;mso-fareast-language:EN-US;mso-bidi-language:AR-SA&quot;&gt;Review&lt;br/&gt;progress of each member&lt;/span&gt;" style="ellipse;whiteSpace=wrap;html=1;" vertex="1" parent="1">
          <mxGeometry x="-70.25" y="1500" width="140" height="70" as="geometry" />
        </mxCell>
        <mxCell id="r_rl-03p8tPwQlVbbB9f-59" style="edgeStyle=none;rounded=0;orthogonalLoop=1;jettySize=auto;html=1;exitX=1;exitY=0.3333333333333333;exitDx=0;exitDy=0;exitPerimeter=0;startArrow=none;startFill=0;endArrow=none;endFill=0;entryX=0;entryY=0.5;entryDx=0;entryDy=0;" edge="1" parent="1" source="DAs-1uU9wL7oWLrZRLtQ-234" target="r_rl-03p8tPwQlVbbB9f-56">
          <mxGeometry relative="1" as="geometry">
            <mxPoint x="-652" y="970.833333333333" as="sourcePoint" />
            <mxPoint x="-92.5" y="788.9999999999991" as="targetPoint" />
          </mxGeometry>
        </mxCell>
        <mxCell id="r_rl-03p8tPwQlVbbB9f-60" style="edgeStyle=none;rounded=0;orthogonalLoop=1;jettySize=auto;html=1;exitX=1;exitY=0.3333333333333333;exitDx=0;exitDy=0;exitPerimeter=0;entryX=0;entryY=0.5;entryDx=0;entryDy=0;startArrow=none;startFill=0;endArrow=none;endFill=0;" edge="1" parent="1" source="DAs-1uU9wL7oWLrZRLtQ-234" target="r_rl-03p8tPwQlVbbB9f-37">
          <mxGeometry relative="1" as="geometry">
            <mxPoint x="3" y="1334.9966666666678" as="targetPoint" />
            <mxPoint x="-672" y="950.833333333333" as="sourcePoint" />
          </mxGeometry>
        </mxCell>
        <mxCell id="r_rl-03p8tPwQlVbbB9f-62" value="&lt;span style=&quot;font-size:11.0pt;line-height:107%;&lt;br/&gt;font-family:&amp;quot;Calibri&amp;quot;,sans-serif;mso-ascii-theme-font:minor-latin;mso-fareast-font-family:&lt;br/&gt;Calibri;mso-fareast-theme-font:minor-latin;mso-hansi-theme-font:minor-latin;&lt;br/&gt;mso-bidi-font-family:&amp;quot;Times New Roman&amp;quot;;mso-bidi-theme-font:minor-bidi;&lt;br/&gt;mso-ansi-language:EN-US;mso-fareast-language:EN-US;mso-bidi-language:AR-SA&quot;&gt;Review&lt;br/&gt;progress and give feedback on tasks&lt;/span&gt;" style="ellipse;whiteSpace=wrap;html=1;" vertex="1" parent="1">
          <mxGeometry x="-42.5" y="2520" width="150" height="70" as="geometry" />
        </mxCell>
        <mxCell id="r_rl-03p8tPwQlVbbB9f-63" style="edgeStyle=none;rounded=0;orthogonalLoop=1;jettySize=auto;html=1;entryX=0;entryY=0.5;entryDx=0;entryDy=0;startArrow=none;startFill=0;endArrow=none;endFill=0;exitX=1;exitY=0.3333333333333333;exitDx=0;exitDy=0;exitPerimeter=0;" edge="1" parent="1" source="DAs-1uU9wL7oWLrZRLtQ-282" target="DAs-1uU9wL7oWLrZRLtQ-285">
          <mxGeometry relative="1" as="geometry">
            <mxPoint x="-570" y="1860" as="sourcePoint" />
            <mxPoint x="-102" y="2005" as="targetPoint" />
          </mxGeometry>
        </mxCell>
        <mxCell id="r_rl-03p8tPwQlVbbB9f-64" style="edgeStyle=none;rounded=0;orthogonalLoop=1;jettySize=auto;html=1;entryX=0;entryY=0.5;entryDx=0;entryDy=0;startArrow=none;startFill=0;endArrow=none;endFill=0;exitX=1;exitY=0.3333333333333333;exitDx=0;exitDy=0;exitPerimeter=0;" edge="1" parent="1" source="DAs-1uU9wL7oWLrZRLtQ-282" target="wPcG4ol8Kc2qVvm0i4W1-24">
          <mxGeometry relative="1" as="geometry">
            <mxPoint x="-632" y="2308.333333333333" as="sourcePoint" />
            <mxPoint x="-47" y="2115" as="targetPoint" />
          </mxGeometry>
        </mxCell>
        <mxCell id="r_rl-03p8tPwQlVbbB9f-65" style="edgeStyle=none;rounded=0;orthogonalLoop=1;jettySize=auto;html=1;entryX=0.026;entryY=0.358;entryDx=0;entryDy=0;startArrow=none;startFill=0;endArrow=none;endFill=0;exitX=1;exitY=0.3333333333333333;exitDx=0;exitDy=0;exitPerimeter=0;entryPerimeter=0;" edge="1" parent="1" source="DAs-1uU9wL7oWLrZRLtQ-282" target="DAs-1uU9wL7oWLrZRLtQ-284">
          <mxGeometry relative="1" as="geometry">
            <mxPoint x="-622" y="2318.333333333333" as="sourcePoint" />
            <mxPoint x="-37" y="2125" as="targetPoint" />
          </mxGeometry>
        </mxCell>
        <mxCell id="r_rl-03p8tPwQlVbbB9f-66" style="edgeStyle=none;rounded=0;orthogonalLoop=1;jettySize=auto;html=1;entryX=0;entryY=0.5;entryDx=0;entryDy=0;startArrow=none;startFill=0;endArrow=none;endFill=0;exitX=1;exitY=0.3333333333333333;exitDx=0;exitDy=0;exitPerimeter=0;" edge="1" parent="1" source="DAs-1uU9wL7oWLrZRLtQ-282" target="r_rl-03p8tPwQlVbbB9f-62">
          <mxGeometry relative="1" as="geometry">
            <mxPoint x="-612" y="2328.333333333333" as="sourcePoint" />
            <mxPoint x="-27" y="2135" as="targetPoint" />
          </mxGeometry>
        </mxCell>
        <mxCell id="r_rl-03p8tPwQlVbbB9f-67" value="View accounts" style="ellipse;whiteSpace=wrap;html=1;" vertex="1" parent="1">
          <mxGeometry x="-95" y="-2730" width="140" height="70" as="geometry" />
        </mxCell>
        <mxCell id="r_rl-03p8tPwQlVbbB9f-68" style="rounded=0;orthogonalLoop=1;jettySize=auto;html=1;exitX=1;exitY=0.3333333333333333;exitDx=0;exitDy=0;exitPerimeter=0;entryX=0;entryY=0.5;entryDx=0;entryDy=0;startArrow=none;startFill=0;endArrow=none;endFill=0;" edge="1" parent="1" source="DAs-1uU9wL7oWLrZRLtQ-151" target="r_rl-03p8tPwQlVbbB9f-67">
          <mxGeometry relative="1" as="geometry">
            <mxPoint x="-665" y="-2476.666666666667" as="sourcePoint" />
            <mxPoint x="-92.49999999999659" y="-2575" as="targetPoint" />
          </mxGeometry>
        </mxCell>
        <mxCell id="wPcG4ol8Kc2qVvm0i4W1-61" value="" style="shape=ellipse;container=1;horizontal=1;horizontalStack=0;resizeParent=1;resizeParentMax=0;resizeLast=0;html=1;dashed=0;collapsible=0;" parent="1" vertex="1">
          <mxGeometry x="-38" y="1150" width="182" height="87.5" as="geometry" />
        </mxCell>
        <mxCell id="wPcG4ol8Kc2qVvm0i4W1-62" value="&lt;span&gt;Give feedback on tasks&lt;/span&gt;" style="html=1;strokeColor=none;fillColor=none;align=center;verticalAlign=middle;rotatable=0;" parent="wPcG4ol8Kc2qVvm0i4W1-61" vertex="1">
          <mxGeometry x="34.339622641509436" y="38.51196581196581" width="137.35849056603774" height="10.47008547008547" as="geometry" />
        </mxCell>
        <mxCell id="r_rl-03p8tPwQlVbbB9f-69" value="" style="edgeStyle=none;rounded=0;orthogonalLoop=1;jettySize=auto;html=1;exitX=1;exitY=0.3333333333333333;exitDx=0;exitDy=0;exitPerimeter=0;entryX=0;entryY=0.5;entryDx=0;entryDy=0;startArrow=none;startFill=0;endArrow=none;endFill=0;" edge="1" parent="1" source="DAs-1uU9wL7oWLrZRLtQ-234" target="wPcG4ol8Kc2qVvm0i4W1-61">
          <mxGeometry relative="1" as="geometry">
            <mxPoint x="191.9000000000001" y="1226.253333333333" as="targetPoint" />
            <mxPoint x="-682" y="940.833333333333" as="sourcePoint" />
          </mxGeometry>
        </mxCell>
        <mxCell id="r_rl-03p8tPwQlVbbB9f-70" style="edgeStyle=none;rounded=0;orthogonalLoop=1;jettySize=auto;html=1;exitX=1;exitY=0.3333333333333333;exitDx=0;exitDy=0;exitPerimeter=0;startArrow=none;startFill=0;endArrow=none;endFill=0;entryX=0;entryY=0.5;entryDx=0;entryDy=0;" edge="1" parent="1" source="DAs-1uU9wL7oWLrZRLtQ-234" target="r_rl-03p8tPwQlVbbB9f-43">
          <mxGeometry relative="1" as="geometry">
            <mxPoint x="-672" y="950.833333333333" as="sourcePoint" />
            <mxPoint x="-65.65354059421361" y="1504.3102655376624" as="targetPoint" />
          </mxGeometry>
        </mxCell>
      </root>
    </mxGraphModel>
  </diagram>
</mxfile>
